<?xml version="1.0" encoding="UTF-8" standalone="no"?>
<svg
   xmlns:lucid="lucid"
   xmlns:dc="http://purl.org/dc/elements/1.1/"
   xmlns:cc="http://creativecommons.org/ns#"
   xmlns:rdf="http://www.w3.org/1999/02/22-rdf-syntax-ns#"
   xmlns:svg="http://www.w3.org/2000/svg"
   xmlns="http://www.w3.org/2000/svg"
   xmlns:xlink="http://www.w3.org/1999/xlink"
   xmlns:sodipodi="http://sodipodi.sourceforge.net/DTD/sodipodi-0.dtd"
   xmlns:inkscape="http://www.inkscape.org/namespaces/inkscape"
   width="16cm"
   height="9.5cm"
   version="1.1"
   id="svg453"
   sodipodi:docname="process1.svg"
   inkscape:version="0.92.3 (2405546, 2018-03-11)">
  <metadata
     id="metadata459">
    <rdf:RDF>
      <cc:Work
         rdf:about="">
        <dc:format>image/svg+xml</dc:format>
        <dc:type
           rdf:resource="http://purl.org/dc/dcmitype/StillImage" />
        <dc:title></dc:title>
      </cc:Work>
    </rdf:RDF>
  </metadata>
  <defs
     id="defs457" />
  <sodipodi:namedview
     pagecolor="#ffffff"
     bordercolor="#666666"
     borderopacity="1"
     objecttolerance="10"
     gridtolerance="10"
     guidetolerance="10"
     inkscape:pageopacity="0"
     inkscape:pageshadow="2"
     inkscape:window-width="1920"
     inkscape:window-height="1138"
     id="namedview455"
     showgrid="false"
     units="cm"
     inkscape:zoom="0.41102094"
     inkscape:cx="411.47501"
     inkscape:cy="287.09"
     inkscape:window-x="-8"
     inkscape:window-y="-8"
     inkscape:window-maximized="1"
     inkscape:current-layer="svg453" />
  <g
     transform="matrix(0.55755631,0,0,0.55755631,-58.452038,-119.64587)"
     lucid:page-tab-id="YGcM5DNywbTK"
     id="g451">
    <g
       id="g6"
       style="filter:url(#a)">
      <path
         d="m 364.78,300 c 13.14,0 23.8,11.53 23.8,25.75 0,14.23 -10.66,25.76 -23.8,25.76 H 293.4 c -13.13,0 -23.78,-11.52 -23.78,-25.75 0,-14.22 10.65,-25.75 23.8,-25.75 z"
         id="path2"
         inkscape:connector-curvature="0"
         style="fill:#19967d;stroke:#3d4752;stroke-width:4" />
      <use
         xlink:href="#b"
         transform="translate(298.82449,336.33333)"
         id="use4"
         x="0"
         y="0"
         width="100%"
         height="100%" />
    </g>
    <g
       id="g18"
       style="filter:url(#c)">
      <path
         d="m 240,427.17 c 0,-4.42 3.58,-8 8,-8 h 162.2 c 4.4,0 8,3.58 8,8 v 98.78 c 0,4.42 -3.6,8 -8,8 H 248 c -4.42,0 -8,-3.58 -8,-8 z"
         id="path8"
         inkscape:connector-curvature="0"
         style="fill:#ffffff;stroke:#3d4752;stroke-width:4" />
      <use
         xlink:href="#d"
         transform="translate(284.53086,451.94419)"
         id="use10"
         x="0"
         y="0"
         width="100%"
         height="100%" />
      <use
         xlink:href="#e"
         transform="translate(362.12346,451.94419)"
         id="use12"
         x="0"
         y="0"
         width="100%"
         height="100%" />
      <use
         xlink:href="#f"
         transform="translate(271.69136,481.27752)"
         id="use14"
         x="0"
         y="0"
         width="100%"
         height="100%" />
      <use
         xlink:href="#g"
         transform="translate(311.66049,510.61086)"
         id="use16"
         x="0"
         y="0"
         width="100%"
         height="100%" />
    </g>
    <path
       d="m 420.2,476.56 h 47.47"
       id="path20"
       inkscape:connector-curvature="0"
       style="fill:none;stroke:#3d4752;stroke-width:4" />
    <path
       d="m 420.2,478.56 h -2 v -4 h 2 z m 62.47,-2 -14.26,4.63 v -9.28 z"
       id="path22"
       inkscape:connector-curvature="0"
       style="fill:#3d4752" />
    <path
       d="m 489.14,476.56 -22.73,7.4 v -14.8 z m -18.73,1.88 5.8,-1.88 -5.8,-1.88 z m 137.16,185.6 h -4 v -30.4 h 4 z m 0,-57.06 h -4 v -51.86 h 4 z m 0,-51.86 h -4 v -2 h 4 z m -2,123.92 -4.63,-14.26 h 9.27 z"
       id="path24"
       inkscape:connector-curvature="0"
       style="fill:#3d4752" />
    <path
       d="m 605.57,685.5 -7.4,-22.72 h 14.8 z m -1.88,-18.72 1.87,5.8 1.88,-5.8 z"
       id="path26"
       inkscape:connector-curvature="0"
       style="fill:#3d4752" />
    <use
       xlink:href="#h"
       transform="translate(592.05344,624.76098)"
       id="use28"
       x="0"
       y="0"
       width="100%"
       height="100%" />
    <path
       d="m 329.1,353.5 v 31.84 h -0.13 v 10.35"
       id="path30"
       inkscape:connector-curvature="0"
       style="fill:none;stroke:#3d4752;stroke-width:4" />
    <path
       d="m 331.1,353.5 h -4 v -2 h 4 z m -2.13,57.2 -4.64,-14.27 h 9.27 z"
       id="path32"
       inkscape:connector-curvature="0"
       style="fill:#3d4752" />
    <path
       d="m 328.97,417.17 -7.4,-22.74 h 14.78 z m -1.9,-18.74 1.9,5.8 1.88,-5.8 z"
       id="path34"
       inkscape:connector-curvature="0"
       style="fill:#3d4752" />
    <g
       id="g40"
       style="filter:url(#a)">
      <path
         d="m 955.16,450.8 c 13.14,0 23.8,11.54 23.8,25.76 0,14.22 -10.66,25.75 -23.8,25.75 H 883.8 c -13.15,0 -23.8,-11.52 -23.8,-25.74 0,-14.22 10.65,-25.75 23.8,-25.75 z"
         id="path36"
         inkscape:connector-curvature="0"
         style="fill:#19967d;stroke:#3d4752;stroke-width:4" />
      <use
         xlink:href="#i"
         transform="translate(894.38889,487.13981)"
         id="use38"
         x="0"
         y="0"
         width="100%"
         height="100%" />
    </g>
    <g
       id="g66"
       style="filter:url(#j)">
      <path
         d="m 491.14,408 c 0,-4.42 3.6,-8 8,-8 H 712 c 4.42,0 8,3.58 8,8 v 137.12 c 0,4.42 -3.58,8 -8,8 H 499.14 c -4.4,0 -8,-3.58 -8,-8 z"
         id="path42"
         inkscape:connector-curvature="0"
         style="fill:#ffffff;stroke:#3d4752;stroke-width:4" />
      <use
         xlink:href="#k"
         transform="translate(509.56368,437.44444)"
         id="use44"
         x="0"
         y="0"
         width="100%"
         height="100%" />
      <use
         xlink:href="#l"
         transform="translate(552.71183,437.44444)"
         id="use46"
         x="0"
         y="0"
         width="100%"
         height="100%" />
      <use
         xlink:href="#m"
         transform="translate(592.09454,437.44444)"
         id="use48"
         x="0"
         y="0"
         width="100%"
         height="100%" />
      <use
         xlink:href="#n"
         transform="translate(506.47726,466.77778)"
         id="use50"
         x="0"
         y="0"
         width="100%"
         height="100%" />
      <use
         xlink:href="#o"
         transform="translate(561.90936,466.77778)"
         id="use52"
         x="0"
         y="0"
         width="100%"
         height="100%" />
      <use
         xlink:href="#p"
         transform="translate(601.29207,466.77778)"
         id="use54"
         x="0"
         y="0"
         width="100%"
         height="100%" />
      <use
         xlink:href="#q"
         transform="translate(512.03282,496.11111)"
         id="use56"
         x="0"
         y="0"
         width="100%"
         height="100%" />
      <use
         xlink:href="#r"
         transform="translate(595.85998,496.11111)"
         id="use58"
         x="0"
         y="0"
         width="100%"
         height="100%" />
      <use
         xlink:href="#s"
         transform="translate(666.04516,496.11111)"
         id="use60"
         x="0"
         y="0"
         width="100%"
         height="100%" />
      <use
         xlink:href="#t"
         transform="translate(540.33528,525.44444)"
         id="use62"
         x="0"
         y="0"
         width="100%"
         height="100%" />
      <use
         xlink:href="#u"
         transform="translate(657.43405,525.44444)"
         id="use64"
         x="0"
         y="0"
         width="100%"
         height="100%" />
    </g>
    <path
       d="M 767.78,478.56 H 722 v -4 h 45.78 z m 68.75,0 h -24.3 v -4 h 24.3 z m -114.53,0 h -2 v -4 h 2 z m 129.53,-2 -14.27,4.63 v -9.28 z"
       id="path68"
       inkscape:connector-curvature="0"
       style="fill:#494949" />
    <path
       d="m 858,476.56 -22.74,7.4 v -14.8 z m -18.74,1.88 5.8,-1.88 -5.8,-1.88 z"
       id="path70"
       inkscape:connector-curvature="0"
       style="fill:#494949" />
    <use
       xlink:href="#v"
       transform="translate(767.78274,481.89281)"
       id="use72"
       x="0"
       y="0"
       width="100%"
       height="100%" />
    <g
       id="g92"
       style="filter:url(#w)">
      <path
         d="m 491.14,695.5 c 0,-4.4 3.6,-8 8,-8 H 712 c 4.42,0 8,3.6 8,8 v 128.7 c 0,4.42 -3.58,8 -8,8 H 499.14 c -4.4,0 -8,-3.58 -8,-8 z"
         id="path74"
         inkscape:connector-curvature="0"
         style="fill:#ffffff;stroke:#3d4752;stroke-width:4" />
      <use
         xlink:href="#x"
         transform="translate(516.4464,720.45858)"
         id="use76"
         x="0"
         y="0"
         width="100%"
         height="100%" />
      <use
         xlink:href="#l"
         transform="translate(595.21183,720.45858)"
         id="use78"
         x="0"
         y="0"
         width="100%"
         height="100%" />
      <use
         xlink:href="#y"
         transform="translate(634.59454,720.45858)"
         id="use80"
         x="0"
         y="0"
         width="100%"
         height="100%" />
      <use
         xlink:href="#z"
         transform="translate(558.8538,749.79191)"
         id="use82"
         x="0"
         y="0"
         width="100%"
         height="100%" />
      <use
         xlink:href="#A"
         transform="translate(631.56985,749.79191)"
         id="use84"
         x="0"
         y="0"
         width="100%"
         height="100%" />
      <use
         xlink:href="#B"
         transform="translate(521.26121,779.12524)"
         id="use86"
         x="0"
         y="0"
         width="100%"
         height="100%" />
      <use
         xlink:href="#s"
         transform="translate(656.81677,779.12524)"
         id="use88"
         x="0"
         y="0"
         width="100%"
         height="100%" />
      <use
         xlink:href="#C"
         transform="translate(550.82911,808.45858)"
         id="use90"
         x="0"
         y="0"
         width="100%"
         height="100%" />
    </g>
    <path
       d="M 489.14,759.85 H 198 v -283.3 h 18.53"
       id="path94"
       inkscape:connector-curvature="0"
       style="fill:none;stroke:#494949;stroke-width:4" />
    <path
       d="m 491.14,761.85 h -2 v -4 h 2 z m -259.61,-285.29 -14.27,4.63 v -9.28 z"
       id="path96"
       inkscape:connector-curvature="0"
       style="fill:#494949" />
    <path
       d="m 238,476.56 -22.74,7.4 v -14.8 z m -18.74,1.88 5.8,-1.88 -5.8,-1.88 z"
       id="path98"
       inkscape:connector-curvature="0"
       style="fill:#494949" />
    <defs
       id="defs449">
      <path
         d="m 169,-182 c -1,-43 -94,-46 -97,-3 18,66 151,10 154,114 3,95 -165,93 -204,36 -6,-8 -10,-19 -12,-30 l 50,-8 c 3,46 112,56 116,5 -17,-69 -150,-10 -154,-114 -4,-87 153,-88 188,-35 5,8 8,18 10,28"
         id="D"
         inkscape:connector-curvature="0"
         style="fill:#3d4752" />
      <path
         d="M 115,-3 C 79,11 28,4 28,-45 V -157 H 4 v -33 h 27 l 15,-45 h 31 v 45 h 36 v 33 H 77 v 99 c -1,23 16,31 38,25 v 30"
         id="E"
         inkscape:connector-curvature="0"
         style="fill:#3d4752" />
      <path
         d="M 133,-34 C 117,-15 103,5 69,4 32,3 11,-16 11,-54 c -1,-60 55,-63 116,-61 1,-26 -3,-47 -28,-47 -18,1 -26,9 -28,27 l -52,-2 c 7,-38 36,-58 82,-57 46,1 74,22 75,68 l 1,82 c -1,14 12,18 25,15 v 27 c -30,8 -71,5 -69,-32 z m -48,3 c 29,0 43,-24 42,-57 -32,0 -66,-3 -65,30 0,17 8,27 23,27"
         id="F"
         inkscape:connector-curvature="0"
         style="fill:#3d4752" />
      <path
         d="m 135,-150 c -39,-12 -60,13 -60,57 V 0 H 25 l -1,-190 h 47 c 2,13 -1,29 3,40 6,-28 27,-53 61,-41 v 41"
         id="G"
         inkscape:connector-curvature="0"
         style="fill:#3d4752" />
      <g
         id="b">
        <use
           transform="scale(0.07407407)"
           xlink:href="#D"
           id="use104"
           x="0"
           y="0"
           width="100%"
           height="100%" />
        <use
           transform="matrix(0.07407407,0,0,0.07407407,17.777778,0)"
           xlink:href="#E"
           id="use106"
           x="0"
           y="0"
           width="100%"
           height="100%" />
        <use
           transform="matrix(0.07407407,0,0,0.07407407,26.592593,0)"
           xlink:href="#F"
           id="use108"
           x="0"
           y="0"
           width="100%"
           height="100%" />
        <use
           transform="matrix(0.07407407,0,0,0.07407407,41.407407,0)"
           xlink:href="#G"
           id="use110"
           x="0"
           y="0"
           width="100%"
           height="100%" />
        <use
           transform="matrix(0.07407407,0,0,0.07407407,51.777778,0)"
           xlink:href="#E"
           id="use112"
           x="0"
           y="0"
           width="100%"
           height="100%" />
      </g>
      <filter
         id="a"
         filterUnits="objectBoundingBox"
         x="-0.079999998"
         y="-0.079999998"
         width="1.17"
         height="1.39">
        <feOffset
           result="offOut"
           in="SourceAlpha"
           dy="6"
           id="feOffset115" />
        <feGaussianBlur
           result="blurOut"
           in="offOut"
           stdDeviation="5"
           id="feGaussianBlur117" />
        <feColorMatrix
           result="colorOut"
           in="blurOut"
           values="0 0 0 0 0 0 0 0 0 0 0 0 0 0 0 0 0 0 0.16862745098039217 0"
           id="feColorMatrix119" />
        <feBlend
           in="SourceGraphic"
           in2="colorOut"
           id="feBlend121"
           mode="normal" />
      </filter>
      <path
         d="M 24,0 V -248 H 76 V 0 H 24"
         id="H"
         inkscape:connector-curvature="0"
         style="fill:#3d4752" />
      <path
         d="m 135,-194 c 87,-1 58,113 63,194 h -50 c -7,-57 23,-157 -34,-157 -59,0 -34,97 -39,157 H 25 l -1,-190 h 47 c 2,12 -1,28 3,38 12,-26 28,-41 61,-42"
         id="I"
         inkscape:connector-curvature="0"
         style="fill:#3d4752" />
      <path
         d="m 25,-224 v -37 h 50 v 37 z M 25,0 V -190 H 75 V 0 H 25"
         id="J"
         inkscape:connector-curvature="0"
         style="fill:#3d4752" />
      <path
         d="M 185,-48 C 172,-18 148,5 103,4 43,2 14,-33 14,-96 c 0,-63 30,-98 90,-98 62,0 83,45 84,108 H 66 c 0,31 8,55 39,56 18,0 30,-7 34,-22 z m -45,-69 c 5,-46 -57,-63 -70,-21 -2,6 -4,13 -4,21 h 74"
         id="K"
         inkscape:connector-curvature="0"
         style="fill:#3d4752" />
      <g
         id="d">
        <use
           transform="scale(0.0617284)"
           xlink:href="#H"
           id="use128"
           x="0"
           y="0"
           width="100%"
           height="100%" />
        <use
           transform="matrix(0.0617284,0,0,0.0617284,6.1728395,0)"
           xlink:href="#I"
           id="use130"
           x="0"
           y="0"
           width="100%"
           height="100%" />
        <use
           transform="matrix(0.0617284,0,0,0.0617284,19.691358,0)"
           xlink:href="#J"
           id="use132"
           x="0"
           y="0"
           width="100%"
           height="100%" />
        <use
           transform="matrix(0.0617284,0,0,0.0617284,25.864198,0)"
           xlink:href="#E"
           id="use134"
           x="0"
           y="0"
           width="100%"
           height="100%" />
        <use
           transform="matrix(0.0617284,0,0,0.0617284,33.209877,0)"
           xlink:href="#J"
           id="use136"
           x="0"
           y="0"
           width="100%"
           height="100%" />
        <use
           transform="matrix(0.0617284,0,0,0.0617284,39.382716,0)"
           xlink:href="#F"
           id="use138"
           x="0"
           y="0"
           width="100%"
           height="100%" />
        <use
           transform="matrix(0.0617284,0,0,0.0617284,51.728395,0)"
           xlink:href="#E"
           id="use140"
           x="0"
           y="0"
           width="100%"
           height="100%" />
        <use
           transform="matrix(0.0617284,0,0,0.0617284,59.074074,0)"
           xlink:href="#K"
           id="use142"
           x="0"
           y="0"
           width="100%"
           height="100%" />
      </g>
      <use
         transform="scale(0.0617284)"
         xlink:href="#F"
         id="e"
         x="0"
         y="0"
         width="100%"
         height="100%" />
      <path
         d="m 135,-194 c 53,0 70,44 70,98 0,56 -19,98 -73,100 -31,1 -45,-17 -59,-34 3,33 2,69 2,105 H 25 l -1,-265 h 48 c 2,10 0,23 3,31 11,-24 29,-35 60,-35 z m -21,164 c 33,0 39,-31 40,-66 0,-38 -9,-64 -40,-64 -56,0 -55,130 0,130"
         id="L"
         inkscape:connector-curvature="0"
         style="fill:#3d4752" />
      <path
         d="m 110,-194 c 64,0 96,36 96,99 0,64 -35,99 -97,99 -61,0 -95,-36 -95,-99 0,-62 34,-99 96,-99 z m -1,164 c 35,0 45,-28 45,-65 0,-40 -10,-65 -43,-65 -34,0 -45,26 -45,65 0,36 10,65 43,65"
         id="M"
         inkscape:connector-curvature="0"
         style="fill:#3d4752" />
      <path
         d="m 88,-194 c 31,-1 46,15 58,34 l -1,-101 h 50 l 1,261 h -48 c -2,-10 0,-23 -3,-31 C 134,-8 116,4 84,4 32,4 16,-41 15,-95 c 0,-56 19,-97 73,-99 z m 17,164 c 33,0 40,-30 41,-66 1,-37 -9,-64 -41,-64 -32,0 -38,30 -39,65 0,43 13,65 39,65"
         id="N"
         inkscape:connector-curvature="0"
         style="fill:#3d4752" />
      <path
         d="M 85,4 C -2,5 27,-109 22,-190 h 50 c 7,57 -23,150 33,157 60,-5 35,-97 40,-157 h 50 l 1,190 h -47 c -2,-12 1,-28 -3,-38 -12,25 -28,42 -61,42"
         id="O"
         inkscape:connector-curvature="0"
         style="fill:#3d4752" />
      <path
         d="M 190,-63 C 183,-21 152,4 104,4 45,4 20,-34 14,-94 2,-204 168,-231 188,-130 l -49,2 c -2,-19 -15,-32 -35,-32 -30,0 -35,28 -38,64 -6,74 65,87 74,30"
         id="P"
         inkscape:connector-curvature="0"
         style="fill:#3d4752" />
      <g
         id="f">
        <use
           transform="scale(0.0617284)"
           xlink:href="#L"
           id="use151"
           x="0"
           y="0"
           width="100%"
           height="100%" />
        <use
           transform="matrix(0.0617284,0,0,0.0617284,13.518519,0)"
           xlink:href="#G"
           id="use153"
           x="0"
           y="0"
           width="100%"
           height="100%" />
        <use
           transform="matrix(0.0617284,0,0,0.0617284,22.160494,0)"
           xlink:href="#M"
           id="use155"
           x="0"
           y="0"
           width="100%"
           height="100%" />
        <use
           transform="matrix(0.0617284,0,0,0.0617284,35.679012,0)"
           xlink:href="#N"
           id="use157"
           x="0"
           y="0"
           width="100%"
           height="100%" />
        <use
           transform="matrix(0.0617284,0,0,0.0617284,49.197531,0)"
           xlink:href="#O"
           id="use159"
           x="0"
           y="0"
           width="100%"
           height="100%" />
        <use
           transform="matrix(0.0617284,0,0,0.0617284,62.716049,0)"
           xlink:href="#P"
           id="use161"
           x="0"
           y="0"
           width="100%"
           height="100%" />
        <use
           transform="matrix(0.0617284,0,0,0.0617284,75.061728,0)"
           xlink:href="#E"
           id="use163"
           x="0"
           y="0"
           width="100%"
           height="100%" />
        <use
           transform="matrix(0.0617284,0,0,0.0617284,82.407407,0)"
           xlink:href="#J"
           id="use165"
           x="0"
           y="0"
           width="100%"
           height="100%" />
        <use
           transform="matrix(0.0617284,0,0,0.0617284,88.580247,0)"
           xlink:href="#M"
           id="use167"
           x="0"
           y="0"
           width="100%"
           height="100%" />
        <use
           transform="matrix(0.0617284,0,0,0.0617284,102.09877,0)"
           xlink:href="#I"
           id="use169"
           x="0"
           y="0"
           width="100%"
           height="100%" />
      </g>
      <g
         id="g">
        <use
           transform="scale(0.0617284)"
           xlink:href="#G"
           id="use172"
           x="0"
           y="0"
           width="100%"
           height="100%" />
        <use
           transform="matrix(0.0617284,0,0,0.0617284,8.6419753,0)"
           xlink:href="#O"
           id="use174"
           x="0"
           y="0"
           width="100%"
           height="100%" />
        <use
           transform="matrix(0.0617284,0,0,0.0617284,22.160494,0)"
           xlink:href="#I"
           id="use176"
           x="0"
           y="0"
           width="100%"
           height="100%" />
      </g>
      <filter
         id="c"
         filterUnits="objectBoundingBox"
         x="-0.059999999"
         y="-0.029999999"
         width="1.11"
         height="1.17">
        <feOffset
           result="offOut"
           in="SourceAlpha"
           dy="6"
           id="feOffset179" />
        <feGaussianBlur
           result="blurOut"
           in="offOut"
           stdDeviation="5"
           id="feGaussianBlur181" />
        <feColorMatrix
           result="colorOut"
           in="blurOut"
           values="0 0 0 0 0 0 0 0 0 0 0 0 0 0 0 0 0 0 0.16862745098039217 0"
           id="feColorMatrix183" />
        <feBlend
           in="SourceGraphic"
           in2="colorOut"
           id="feBlend185"
           mode="normal" />
      </filter>
      <path
         d="m 135,-194 c 87,-1 58,113 63,194 h -50 c -7,-57 23,-157 -34,-157 -59,0 -34,97 -39,157 H 25 l -1,-190 h 47 c 2,12 -1,28 3,38 12,-26 28,-41 61,-42"
         id="Q"
         inkscape:connector-curvature="0" />
      <path
         d="m 110,-194 c 64,0 96,36 96,99 0,64 -35,99 -97,99 -61,0 -95,-36 -95,-99 0,-62 34,-99 96,-99 z m -1,164 c 35,0 45,-28 45,-65 0,-40 -10,-65 -43,-65 -34,0 -45,26 -45,65 0,36 10,65 43,65"
         id="R"
         inkscape:connector-curvature="0" />
      <g
         id="h">
        <use
           transform="scale(0.0617284)"
           xlink:href="#Q"
           id="use190"
           x="0"
           y="0"
           width="100%"
           height="100%" />
        <use
           transform="matrix(0.0617284,0,0,0.0617284,13.518519,0)"
           xlink:href="#R"
           id="use192"
           x="0"
           y="0"
           width="100%"
           height="100%" />
      </g>
      <path
         d="m 24,0 v -248 h 195 v 40 H 76 v 63 h 132 v 40 H 76 v 65 H 226 V 0 H 24"
         id="S"
         inkscape:connector-curvature="0"
         style="fill:#3d4752" />
      <g
         id="i">
        <use
           transform="scale(0.07407407)"
           xlink:href="#S"
           id="use196"
           x="0"
           y="0"
           width="100%"
           height="100%" />
        <use
           transform="matrix(0.07407407,0,0,0.07407407,17.777778,0)"
           xlink:href="#I"
           id="use198"
           x="0"
           y="0"
           width="100%"
           height="100%" />
        <use
           transform="matrix(0.07407407,0,0,0.07407407,34,0)"
           xlink:href="#N"
           id="use200"
           x="0"
           y="0"
           width="100%"
           height="100%" />
      </g>
      <path
         d="M 199,0 177,-63 H 83 L 61,0 H 9 l 90,-248 h 61 L 250,0 Z m -33,-102 -36,-108 c -10,38 -24,72 -36,108 h 72"
         id="T"
         inkscape:connector-curvature="0"
         style="fill:#3d4752" />
      <g
         id="k">
        <use
           transform="scale(0.0617284)"
           xlink:href="#T"
           id="use204"
           x="0"
           y="0"
           width="100%"
           height="100%" />
        <use
           transform="matrix(0.0617284,0,0,0.0617284,15.987654,0)"
           xlink:href="#G"
           id="use206"
           x="0"
           y="0"
           width="100%"
           height="100%" />
        <use
           transform="matrix(0.0617284,0,0,0.0617284,24.62963,0)"
           xlink:href="#K"
           id="use208"
           x="0"
           y="0"
           width="100%"
           height="100%" />
      </g>
      <path
         d="M 114,-157 C 55,-157 80,-60 75,0 H 25 v -261 h 50 l -1,109 c 12,-26 28,-41 61,-42 86,-1 58,113 63,194 h -50 c -7,-57 23,-157 -34,-157"
         id="U"
         inkscape:connector-curvature="0"
         style="fill:#3d4752" />
      <g
         id="l">
        <use
           transform="scale(0.0617284)"
           xlink:href="#E"
           id="use212"
           x="0"
           y="0"
           width="100%"
           height="100%" />
        <use
           transform="matrix(0.0617284,0,0,0.0617284,7.345679,0)"
           xlink:href="#U"
           id="use214"
           x="0"
           y="0"
           width="100%"
           height="100%" />
        <use
           transform="matrix(0.0617284,0,0,0.0617284,20.864198,0)"
           xlink:href="#K"
           id="use216"
           x="0"
           y="0"
           width="100%"
           height="100%" />
      </g>
      <path
         d="M 128,0 H 69 L 1,-190 h 53 l 45,150 48,-150 h 52"
         id="V"
         inkscape:connector-curvature="0"
         style="fill:#3d4752" />
      <path
         d="m 137,-138 c 1,-29 -70,-34 -71,-4 15,46 118,7 119,86 1,83 -164,76 -172,9 l 43,-7 c 4,19 20,25 44,25 33,8 57,-30 24,-41 -43,-14 -102,-11 -104,-66 -2,-80 154,-74 161,-7"
         id="W"
         inkscape:connector-curvature="0"
         style="fill:#3d4752" />
      <g
         id="m">
        <use
           transform="scale(0.0617284)"
           xlink:href="#N"
           id="use221"
           x="0"
           y="0"
           width="100%"
           height="100%" />
        <use
           transform="matrix(0.0617284,0,0,0.0617284,13.518519,0)"
           xlink:href="#K"
           id="use223"
           x="0"
           y="0"
           width="100%"
           height="100%" />
        <use
           transform="matrix(0.0617284,0,0,0.0617284,25.864198,0)"
           xlink:href="#V"
           id="use225"
           x="0"
           y="0"
           width="100%"
           height="100%" />
        <use
           transform="matrix(0.0617284,0,0,0.0617284,38.209877,0)"
           xlink:href="#J"
           id="use227"
           x="0"
           y="0"
           width="100%"
           height="100%" />
        <use
           transform="matrix(0.0617284,0,0,0.0617284,44.382716,0)"
           xlink:href="#F"
           id="use229"
           x="0"
           y="0"
           width="100%"
           height="100%" />
        <use
           transform="matrix(0.0617284,0,0,0.0617284,56.728395,0)"
           xlink:href="#E"
           id="use231"
           x="0"
           y="0"
           width="100%"
           height="100%" />
        <use
           transform="matrix(0.0617284,0,0,0.0617284,64.074074,0)"
           xlink:href="#J"
           id="use233"
           x="0"
           y="0"
           width="100%"
           height="100%" />
        <use
           transform="matrix(0.0617284,0,0,0.0617284,70.246914,0)"
           xlink:href="#M"
           id="use235"
           x="0"
           y="0"
           width="100%"
           height="100%" />
        <use
           transform="matrix(0.0617284,0,0,0.0617284,83.765432,0)"
           xlink:href="#I"
           id="use237"
           x="0"
           y="0"
           width="100%"
           height="100%" />
        <use
           transform="matrix(0.0617284,0,0,0.0617284,97.283951,0)"
           xlink:href="#W"
           id="use239"
           x="0"
           y="0"
           width="100%"
           height="100%" />
      </g>
      <path
         d="m 121,-226 c -27,-7 -43,5 -38,36 h 38 v 33 H 83 V 0 H 34 V -157 H 6 v -33 h 28 c -9,-59 32,-81 87,-68 v 32"
         id="X"
         inkscape:connector-curvature="0"
         style="fill:#3d4752" />
      <path
         d="m 220,-157 c -53,9 -28,100 -34,157 h -49 v -107 c 1,-27 -5,-49 -29,-50 C 55,-147 81,-57 75,0 H 25 l -1,-190 h 47 c 2,12 -1,28 3,38 10,-53 101,-56 108,0 13,-22 24,-43 59,-42 82,1 51,116 57,194 h -49 v -107 c -1,-25 -5,-48 -29,-50"
         id="Y"
         inkscape:connector-curvature="0"
         style="fill:#3d4752" />
      <g
         id="n">
        <use
           transform="scale(0.0617284)"
           xlink:href="#X"
           id="use244"
           x="0"
           y="0"
           width="100%"
           height="100%" />
        <use
           transform="matrix(0.0617284,0,0,0.0617284,7.345679,0)"
           xlink:href="#G"
           id="use246"
           x="0"
           y="0"
           width="100%"
           height="100%" />
        <use
           transform="matrix(0.0617284,0,0,0.0617284,15.987654,0)"
           xlink:href="#M"
           id="use248"
           x="0"
           y="0"
           width="100%"
           height="100%" />
        <use
           transform="matrix(0.0617284,0,0,0.0617284,29.506173,0)"
           xlink:href="#Y"
           id="use250"
           x="0"
           y="0"
           width="100%"
           height="100%" />
      </g>
      <g
         id="o">
        <use
           transform="scale(0.0617284)"
           xlink:href="#E"
           id="use253"
           x="0"
           y="0"
           width="100%"
           height="100%" />
        <use
           transform="matrix(0.0617284,0,0,0.0617284,7.345679,0)"
           xlink:href="#U"
           id="use255"
           x="0"
           y="0"
           width="100%"
           height="100%" />
        <use
           transform="matrix(0.0617284,0,0,0.0617284,20.864198,0)"
           xlink:href="#K"
           id="use257"
           x="0"
           y="0"
           width="100%"
           height="100%" />
      </g>
      <path
         d="M 25,0 V -261 H 75 V 0 H 25"
         id="Z"
         inkscape:connector-curvature="0"
         style="fill:#3d4752" />
      <g
         id="p">
        <use
           transform="scale(0.0617284)"
           xlink:href="#W"
           id="use261"
           x="0"
           y="0"
           width="100%"
           height="100%" />
        <use
           transform="matrix(0.0617284,0,0,0.0617284,12.345679,0)"
           xlink:href="#J"
           id="use263"
           x="0"
           y="0"
           width="100%"
           height="100%" />
        <use
           transform="matrix(0.0617284,0,0,0.0617284,18.518519,0)"
           xlink:href="#Y"
           id="use265"
           x="0"
           y="0"
           width="100%"
           height="100%" />
        <use
           transform="matrix(0.0617284,0,0,0.0617284,38.271605,0)"
           xlink:href="#O"
           id="use267"
           x="0"
           y="0"
           width="100%"
           height="100%" />
        <use
           transform="matrix(0.0617284,0,0,0.0617284,51.790123,0)"
           xlink:href="#Z"
           id="use269"
           x="0"
           y="0"
           width="100%"
           height="100%" />
        <use
           transform="matrix(0.0617284,0,0,0.0617284,57.962963,0)"
           xlink:href="#F"
           id="use271"
           x="0"
           y="0"
           width="100%"
           height="100%" />
        <use
           transform="matrix(0.0617284,0,0,0.0617284,70.308642,0)"
           xlink:href="#E"
           id="use273"
           x="0"
           y="0"
           width="100%"
           height="100%" />
        <use
           transform="matrix(0.0617284,0,0,0.0617284,77.654321,0)"
           xlink:href="#K"
           id="use275"
           x="0"
           y="0"
           width="100%"
           height="100%" />
        <use
           transform="matrix(0.0617284,0,0,0.0617284,90,0)"
           xlink:href="#N"
           id="use277"
           x="0"
           y="0"
           width="100%"
           height="100%" />
      </g>
      <g
         id="q">
        <use
           transform="scale(0.0617284)"
           xlink:href="#Y"
           id="use280"
           x="0"
           y="0"
           width="100%"
           height="100%" />
        <use
           transform="matrix(0.0617284,0,0,0.0617284,19.753086,0)"
           xlink:href="#M"
           id="use282"
           x="0"
           y="0"
           width="100%"
           height="100%" />
        <use
           transform="matrix(0.0617284,0,0,0.0617284,33.271605,0)"
           xlink:href="#N"
           id="use284"
           x="0"
           y="0"
           width="100%"
           height="100%" />
        <use
           transform="matrix(0.0617284,0,0,0.0617284,46.790123,0)"
           xlink:href="#K"
           id="use286"
           x="0"
           y="0"
           width="100%"
           height="100%" />
        <use
           transform="matrix(0.0617284,0,0,0.0617284,59.135802,0)"
           xlink:href="#Z"
           id="use288"
           x="0"
           y="0"
           width="100%"
           height="100%" />
        <use
           transform="matrix(0.0617284,0,0,0.0617284,65.308642,0)"
           xlink:href="#W"
           id="use290"
           x="0"
           y="0"
           width="100%"
           height="100%" />
      </g>
      <path
         d="M 231,0 H 179 L 140,-155 100,0 H 48 L -1,-190 h 46 l 32,145 c 9,-52 24,-97 36,-145 h 53 l 37,145 32,-145 h 46"
         id="aa"
         inkscape:connector-curvature="0"
         style="fill:#3d4752" />
      <g
         id="r">
        <use
           transform="scale(0.0617284)"
           xlink:href="#aa"
           id="use294"
           x="0"
           y="0"
           width="100%"
           height="100%" />
        <use
           transform="matrix(0.0617284,0,0,0.0617284,17.283951,0)"
           xlink:href="#J"
           id="use296"
           x="0"
           y="0"
           width="100%"
           height="100%" />
        <use
           transform="matrix(0.0617284,0,0,0.0617284,23.45679,0)"
           xlink:href="#E"
           id="use298"
           x="0"
           y="0"
           width="100%"
           height="100%" />
        <use
           transform="matrix(0.0617284,0,0,0.0617284,30.802469,0)"
           xlink:href="#U"
           id="use300"
           x="0"
           y="0"
           width="100%"
           height="100%" />
        <use
           transform="matrix(0.0617284,0,0,0.0617284,44.320988,0)"
           xlink:href="#J"
           id="use302"
           x="0"
           y="0"
           width="100%"
           height="100%" />
        <use
           transform="matrix(0.0617284,0,0,0.0617284,50.493827,0)"
           xlink:href="#I"
           id="use304"
           x="0"
           y="0"
           width="100%"
           height="100%" />
      </g>
      <g
         id="s">
        <use
           transform="scale(0.0617284)"
           xlink:href="#E"
           id="use307"
           x="0"
           y="0"
           width="100%"
           height="100%" />
        <use
           transform="matrix(0.0617284,0,0,0.0617284,7.345679,0)"
           xlink:href="#U"
           id="use309"
           x="0"
           y="0"
           width="100%"
           height="100%" />
        <use
           transform="matrix(0.0617284,0,0,0.0617284,20.864198,0)"
           xlink:href="#K"
           id="use311"
           x="0"
           y="0"
           width="100%"
           height="100%" />
      </g>
      <g
         id="t">
        <use
           transform="scale(0.0617284)"
           xlink:href="#E"
           id="use314"
           x="0"
           y="0"
           width="100%"
           height="100%" />
        <use
           transform="matrix(0.0617284,0,0,0.0617284,7.345679,0)"
           xlink:href="#M"
           id="use316"
           x="0"
           y="0"
           width="100%"
           height="100%" />
        <use
           transform="matrix(0.0617284,0,0,0.0617284,20.864198,0)"
           xlink:href="#Z"
           id="use318"
           x="0"
           y="0"
           width="100%"
           height="100%" />
        <use
           transform="matrix(0.0617284,0,0,0.0617284,27.037037,0)"
           xlink:href="#K"
           id="use320"
           x="0"
           y="0"
           width="100%"
           height="100%" />
        <use
           transform="matrix(0.0617284,0,0,0.0617284,39.382716,0)"
           xlink:href="#G"
           id="use322"
           x="0"
           y="0"
           width="100%"
           height="100%" />
        <use
           transform="matrix(0.0617284,0,0,0.0617284,48.024691,0)"
           xlink:href="#F"
           id="use324"
           x="0"
           y="0"
           width="100%"
           height="100%" />
        <use
           transform="matrix(0.0617284,0,0,0.0617284,60.37037,0)"
           xlink:href="#I"
           id="use326"
           x="0"
           y="0"
           width="100%"
           height="100%" />
        <use
           transform="matrix(0.0617284,0,0,0.0617284,73.888889,0)"
           xlink:href="#P"
           id="use328"
           x="0"
           y="0"
           width="100%"
           height="100%" />
        <use
           transform="matrix(0.0617284,0,0,0.0617284,86.234568,0)"
           xlink:href="#K"
           id="use330"
           x="0"
           y="0"
           width="100%"
           height="100%" />
        <use
           transform="matrix(0.0617284,0,0,0.0617284,98.580247,0)"
           xlink:href="#W"
           id="use332"
           x="0"
           y="0"
           width="100%"
           height="100%" />
      </g>
      <path
         d="m 110,-251 c 83,-7 118,89 53,130 -17,10 -36,21 -38,46 H 78 c 2,-56 65,-53 71,-103 2,-21 -15,-35 -38,-34 -25,1 -41,14 -44,38 l -50,-2 c 6,-48 39,-70 93,-75 z M 77,0 v -47 h 51 V 0 H 77"
         id="ab"
         inkscape:connector-curvature="0"
         style="fill:#3d4752" />
      <use
         transform="scale(0.0617284)"
         xlink:href="#ab"
         id="u"
         x="0"
         y="0"
         width="100%"
         height="100%" />
      <filter
         id="j"
         filterUnits="objectBoundingBox"
         x="-0.039999999"
         y="-0.029999999"
         width="1.09"
         height="1.13">
        <feOffset
           result="offOut"
           in="SourceAlpha"
           dy="6"
           id="feOffset337" />
        <feGaussianBlur
           result="blurOut"
           in="offOut"
           stdDeviation="5"
           id="feGaussianBlur339" />
        <feColorMatrix
           result="colorOut"
           in="blurOut"
           values="0 0 0 0 0 0 0 0 0 0 0 0 0 0 0 0 0 0 0.16862745098039217 0"
           id="feColorMatrix341" />
        <feBlend
           in="SourceGraphic"
           in2="colorOut"
           id="feBlend343"
           mode="normal" />
      </filter>
      <path
         d="M 123,10 C 108,53 80,86 19,72 V 37 C 54,45 72,26 78,-2 L 3,-190 h 52 l 48,148 c 12,-52 28,-100 44,-148 h 51"
         id="ac"
         inkscape:connector-curvature="0"
         style="fill:#3d4752" />
      <g
         id="v">
        <use
           transform="scale(0.07407407)"
           xlink:href="#ac"
           id="use347"
           x="0"
           y="0"
           width="100%"
           height="100%" />
        <use
           transform="matrix(0.07407407,0,0,0.07407407,14.814815,0)"
           xlink:href="#K"
           id="use349"
           x="0"
           y="0"
           width="100%"
           height="100%" />
        <use
           transform="matrix(0.07407407,0,0,0.07407407,29.62963,0)"
           xlink:href="#W"
           id="use351"
           x="0"
           y="0"
           width="100%"
           height="100%" />
      </g>
      <g
         id="x">
        <use
           transform="scale(0.0617284)"
           xlink:href="#O"
           id="use354"
           x="0"
           y="0"
           width="100%"
           height="100%" />
        <use
           transform="matrix(0.0617284,0,0,0.0617284,13.518519,0)"
           xlink:href="#L"
           id="use356"
           x="0"
           y="0"
           width="100%"
           height="100%" />
        <use
           transform="matrix(0.0617284,0,0,0.0617284,27.037037,0)"
           xlink:href="#N"
           id="use358"
           x="0"
           y="0"
           width="100%"
           height="100%" />
        <use
           transform="matrix(0.0617284,0,0,0.0617284,40.555556,0)"
           xlink:href="#F"
           id="use360"
           x="0"
           y="0"
           width="100%"
           height="100%" />
        <use
           transform="matrix(0.0617284,0,0,0.0617284,52.901235,0)"
           xlink:href="#E"
           id="use362"
           x="0"
           y="0"
           width="100%"
           height="100%" />
        <use
           transform="matrix(0.0617284,0,0,0.0617284,60.246914,0)"
           xlink:href="#K"
           id="use364"
           x="0"
           y="0"
           width="100%"
           height="100%" />
      </g>
      <g
         id="y">
        <use
           transform="scale(0.0617284)"
           xlink:href="#M"
           id="use367"
           x="0"
           y="0"
           width="100%"
           height="100%" />
        <use
           transform="matrix(0.0617284,0,0,0.0617284,13.518519,0)"
           xlink:href="#X"
           id="use369"
           x="0"
           y="0"
           width="100%"
           height="100%" />
        <use
           transform="matrix(0.0617284,0,0,0.0617284,20.864198,0)"
           xlink:href="#X"
           id="use371"
           x="0"
           y="0"
           width="100%"
           height="100%" />
        <use
           transform="matrix(0.0617284,0,0,0.0617284,28.209877,0)"
           xlink:href="#W"
           id="use373"
           x="0"
           y="0"
           width="100%"
           height="100%" />
        <use
           transform="matrix(0.0617284,0,0,0.0617284,40.555556,0)"
           xlink:href="#K"
           id="use375"
           x="0"
           y="0"
           width="100%"
           height="100%" />
        <use
           transform="matrix(0.0617284,0,0,0.0617284,52.901235,0)"
           xlink:href="#E"
           id="use377"
           x="0"
           y="0"
           width="100%"
           height="100%" />
      </g>
      <g
         id="z">
        <use
           transform="scale(0.0617284)"
           xlink:href="#V"
           id="use380"
           x="0"
           y="0"
           width="100%"
           height="100%" />
        <use
           transform="matrix(0.0617284,0,0,0.0617284,12.345679,0)"
           xlink:href="#K"
           id="use382"
           x="0"
           y="0"
           width="100%"
           height="100%" />
        <use
           transform="matrix(0.0617284,0,0,0.0617284,24.691358,0)"
           xlink:href="#P"
           id="use384"
           x="0"
           y="0"
           width="100%"
           height="100%" />
        <use
           transform="matrix(0.0617284,0,0,0.0617284,37.037037,0)"
           xlink:href="#E"
           id="use386"
           x="0"
           y="0"
           width="100%"
           height="100%" />
        <use
           transform="matrix(0.0617284,0,0,0.0617284,44.382716,0)"
           xlink:href="#M"
           id="use388"
           x="0"
           y="0"
           width="100%"
           height="100%" />
        <use
           transform="matrix(0.0617284,0,0,0.0617284,57.901235,0)"
           xlink:href="#G"
           id="use390"
           x="0"
           y="0"
           width="100%"
           height="100%" />
      </g>
      <g
         id="A">
        <use
           transform="scale(0.0617284)"
           xlink:href="#E"
           id="use393"
           x="0"
           y="0"
           width="100%"
           height="100%" />
        <use
           transform="matrix(0.0617284,0,0,0.0617284,7.345679,0)"
           xlink:href="#M"
           id="use395"
           x="0"
           y="0"
           width="100%"
           height="100%" />
      </g>
      <g
         id="B">
        <use
           transform="scale(0.0617284)"
           xlink:href="#P"
           id="use398"
           x="0"
           y="0"
           width="100%"
           height="100%" />
        <use
           transform="matrix(0.0617284,0,0,0.0617284,12.345679,0)"
           xlink:href="#M"
           id="use400"
           x="0"
           y="0"
           width="100%"
           height="100%" />
        <use
           transform="matrix(0.0617284,0,0,0.0617284,25.864198,0)"
           xlink:href="#Y"
           id="use402"
           x="0"
           y="0"
           width="100%"
           height="100%" />
        <use
           transform="matrix(0.0617284,0,0,0.0617284,45.617284,0)"
           xlink:href="#L"
           id="use404"
           x="0"
           y="0"
           width="100%"
           height="100%" />
        <use
           transform="matrix(0.0617284,0,0,0.0617284,59.135802,0)"
           xlink:href="#K"
           id="use406"
           x="0"
           y="0"
           width="100%"
           height="100%" />
        <use
           transform="matrix(0.0617284,0,0,0.0617284,71.481481,0)"
           xlink:href="#I"
           id="use408"
           x="0"
           y="0"
           width="100%"
           height="100%" />
        <use
           transform="matrix(0.0617284,0,0,0.0617284,85,0)"
           xlink:href="#W"
           id="use410"
           x="0"
           y="0"
           width="100%"
           height="100%" />
        <use
           transform="matrix(0.0617284,0,0,0.0617284,97.345679,0)"
           xlink:href="#F"
           id="use412"
           x="0"
           y="0"
           width="100%"
           height="100%" />
        <use
           transform="matrix(0.0617284,0,0,0.0617284,109.69136,0)"
           xlink:href="#E"
           id="use414"
           x="0"
           y="0"
           width="100%"
           height="100%" />
        <use
           transform="matrix(0.0617284,0,0,0.0617284,117.03704,0)"
           xlink:href="#K"
           id="use416"
           x="0"
           y="0"
           width="100%"
           height="100%" />
      </g>
      <g
         id="C">
        <use
           transform="scale(0.0617284)"
           xlink:href="#N"
           id="use419"
           x="0"
           y="0"
           width="100%"
           height="100%" />
        <use
           transform="matrix(0.0617284,0,0,0.0617284,13.518519,0)"
           xlink:href="#K"
           id="use421"
           x="0"
           y="0"
           width="100%"
           height="100%" />
        <use
           transform="matrix(0.0617284,0,0,0.0617284,25.864198,0)"
           xlink:href="#V"
           id="use423"
           x="0"
           y="0"
           width="100%"
           height="100%" />
        <use
           transform="matrix(0.0617284,0,0,0.0617284,38.209877,0)"
           xlink:href="#J"
           id="use425"
           x="0"
           y="0"
           width="100%"
           height="100%" />
        <use
           transform="matrix(0.0617284,0,0,0.0617284,44.382716,0)"
           xlink:href="#F"
           id="use427"
           x="0"
           y="0"
           width="100%"
           height="100%" />
        <use
           transform="matrix(0.0617284,0,0,0.0617284,56.728395,0)"
           xlink:href="#E"
           id="use429"
           x="0"
           y="0"
           width="100%"
           height="100%" />
        <use
           transform="matrix(0.0617284,0,0,0.0617284,64.074074,0)"
           xlink:href="#J"
           id="use431"
           x="0"
           y="0"
           width="100%"
           height="100%" />
        <use
           transform="matrix(0.0617284,0,0,0.0617284,70.246914,0)"
           xlink:href="#M"
           id="use433"
           x="0"
           y="0"
           width="100%"
           height="100%" />
        <use
           transform="matrix(0.0617284,0,0,0.0617284,83.765432,0)"
           xlink:href="#I"
           id="use435"
           x="0"
           y="0"
           width="100%"
           height="100%" />
        <use
           transform="matrix(0.0617284,0,0,0.0617284,97.283951,0)"
           xlink:href="#W"
           id="use437"
           x="0"
           y="0"
           width="100%"
           height="100%" />
      </g>
      <filter
         id="w"
         filterUnits="objectBoundingBox"
         x="-0.039999999"
         y="-0.029999999"
         width="1.09"
         height="1.14">
        <feOffset
           result="offOut"
           in="SourceAlpha"
           dy="6"
           id="feOffset440" />
        <feGaussianBlur
           result="blurOut"
           in="offOut"
           stdDeviation="5"
           id="feGaussianBlur442" />
        <feColorMatrix
           result="colorOut"
           in="blurOut"
           values="0 0 0 0 0 0 0 0 0 0 0 0 0 0 0 0 0 0 0.16862745098039217 0"
           id="feColorMatrix444" />
        <feBlend
           in="SourceGraphic"
           in2="colorOut"
           id="feBlend446"
           mode="normal" />
      </filter>
    </defs>
  </g>
</svg>
