<?xml version="1.0" encoding="UTF-8" standalone="no"?>
<!-- Created with Inkscape (http://www.inkscape.org/) -->

<svg
   xmlns:dc="http://purl.org/dc/elements/1.1/"
   xmlns:cc="http://creativecommons.org/ns#"
   xmlns:rdf="http://www.w3.org/1999/02/22-rdf-syntax-ns#"
   xmlns:svg="http://www.w3.org/2000/svg"
   xmlns="http://www.w3.org/2000/svg"
   xmlns:sodipodi="http://sodipodi.sourceforge.net/DTD/sodipodi-0.dtd"
   xmlns:inkscape="http://www.inkscape.org/namespaces/inkscape"
   width="8cm"
   height="3cm"
   viewBox="0 0 80 29.999999"
   version="1.1"
   id="svg1766"
   inkscape:version="0.92.3 (2405546, 2018-03-11)"
   sodipodi:docname="dual_resonators.svg">
  <defs
     id="defs1760">
    <marker
       inkscape:stockid="Arrow1Lstart"
       orient="auto"
       refY="0"
       refX="0"
       id="marker3622"
       style="overflow:visible"
       inkscape:isstock="true">
      <path
         id="path3620"
         d="M 0,0 5,-5 -12.5,0 5,5 Z"
         style="fill:#000000;fill-opacity:1;fill-rule:evenodd;stroke:#000000;stroke-width:1.00000003pt;stroke-opacity:1"
         transform="matrix(0.8,0,0,0.8,10,0)"
         inkscape:connector-curvature="0" />
    </marker>
    <marker
       inkscape:isstock="true"
       style="overflow:visible"
       id="marker3552"
       refX="0"
       refY="0"
       orient="auto"
       inkscape:stockid="Arrow1Lend">
      <path
         transform="matrix(-0.8,0,0,-0.8,-10,0)"
         style="fill:#000000;fill-opacity:1;fill-rule:evenodd;stroke:#000000;stroke-width:1.00000003pt;stroke-opacity:1"
         d="M 0,0 5,-5 -12.5,0 5,5 Z"
         id="path3550"
         inkscape:connector-curvature="0" />
    </marker>
    <inkscape:perspective
       sodipodi:type="inkscape:persp3d"
       inkscape:vp_x="22.873904 : 64.991236 : 1"
       inkscape:vp_y="0 : 120.44594 : 0"
       inkscape:vp_z="551.42054 : 31.893463 : 1"
       inkscape:persp3d-origin="164.94867 : -10.986578 : 1"
       id="perspective2352" />
  </defs>
  <sodipodi:namedview
     id="base"
     pagecolor="#ffffff"
     bordercolor="#666666"
     borderopacity="1.0"
     inkscape:pageopacity="0.0"
     inkscape:pageshadow="2"
     inkscape:zoom="1.4625249"
     inkscape:cx="146.45355"
     inkscape:cy="172.77891"
     inkscape:document-units="mm"
     inkscape:current-layer="layer1"
     showgrid="false"
     units="cm"
     inkscape:window-width="1920"
     inkscape:window-height="1138"
     inkscape:window-x="-8"
     inkscape:window-y="-8"
     inkscape:window-maximized="1" />
  <metadata
     id="metadata1763">
    <rdf:RDF>
      <cc:Work
         rdf:about="">
        <dc:format>image/svg+xml</dc:format>
        <dc:type
           rdf:resource="http://purl.org/dc/dcmitype/StillImage" />
        <dc:title></dc:title>
      </cc:Work>
    </rdf:RDF>
  </metadata>
  <g
     inkscape:label="Ebene 1"
     inkscape:groupmode="layer"
     id="layer1"
     transform="translate(0,-267.00001)">
    <text
       xml:space="preserve"
       style="font-style:normal;font-weight:normal;font-size:3.52777767px;line-height:0%;font-family:Sans;letter-spacing:0px;word-spacing:0px;fill:#000000;fill-opacity:1;stroke:none;stroke-width:0.26458332px;stroke-linecap:butt;stroke-linejoin:miter;stroke-opacity:1"
       x="117.33235"
       y="84.455734"
       id="text2370"><tspan
         sodipodi:role="line"
         id="tspan2368"
         x="117.33235"
         y="85.372131"
         style="stroke-width:0.26458332px" /></text>
    <flowRoot
       xml:space="preserve"
       id="flowRoot2372"
       style="font-style:normal;font-weight:normal;font-size:13.33333302px;line-height:0%;font-family:Sans;letter-spacing:0px;word-spacing:0px;fill:#000000;fill-opacity:1;stroke:none;stroke-width:1px;stroke-linecap:butt;stroke-linejoin:miter;stroke-opacity:1"
       transform="scale(0.26458333)"><flowRegion
         id="flowRegion2374"><rect
           id="rect2376"
           width="146.78899"
           height="34.250763"
           x="417.1254"
           y="224.66035" /></flowRegion><flowPara
         id="flowPara2378" /></flowRoot>    <path
       style="opacity:1;fill:#000000;fill-opacity:1;stroke:none;stroke-width:0.09976034;stroke-miterlimit:4;stroke-dasharray:none;stroke-dashoffset:0;stroke-opacity:1"
       d="m 43.607714,287.4263 v -3.00914 h 1.817704 1.817709 v -2.79529 -2.79529 h -1.817709 -1.817704 v -2.99388 -2.99387 h 3.009145 3.009138 v 1.81772 1.8177 h 2.780022 2.780021 v -1.8177 -1.81772 h 3.009149 3.00914 v 2.99363 2.99362 l -1.825339,0.008 -1.825346,0.008 -0.0081,2.78765 -0.0081,2.78766 h 1.833142 1.833142 v 3.00914 3.00915 h -3.009127 -3.00914 v -1.83298 -1.83298 h -2.77999 -2.780022 v 1.83298 1.83298 h -3.009143 -3.009141 z m 5.193442,0.35133 v -1.83298 h 3.589352 3.589344 l 0.0081,1.82534 0.0081,1.82534 2.191943,0.008 2.191935,0.008 v -2.19979 -2.19977 h -1.833092 -1.832982 v -3.58932 -3.58959 h 1.832982 1.832981 v -2.19978 -2.19977 l -2.191934,0.008 -2.191943,0.008 -0.0081,1.82535 -0.0081,1.82534 h -3.589323 -3.589351 v -1.83297 -1.83299 H 47.854026 46.90699 v 1.25254 1.25254 h -1.252446 -1.252536 v 0.94704 0.94704 h 1.83298 1.832986 v 3.58933 3.58936 l -1.825349,0.008 -1.825342,0.008 -0.0079,2.19193 -0.0079,2.19195 h 2.199778 2.199776 z"
       id="path7632"
       inkscape:connector-curvature="0" />
    <rect
       style="opacity:0.7;fill:#000000;fill-opacity:1;stroke:#000000;stroke-width:0.17143959;stroke-miterlimit:4;stroke-dasharray:none;stroke-dashoffset:0;stroke-opacity:1"
       id="rect3937"
       width="17.42556"
       height="17.42556"
       x="20.629623"
       y="273.08578" />
    <rect
       style="opacity:0.7;fill:#ffffff;fill-opacity:1;stroke:none;stroke-width:0.17199999;stroke-miterlimit:4;stroke-dasharray:none;stroke-dashoffset:0;stroke-opacity:1"
       id="rect4009"
       width="4.4441733"
       height="2.5321453"
       x="20.728443"
       y="245.57986" />
    <rect
       style="opacity:0.7;fill:#ffffff;fill-opacity:1;stroke:none;stroke-width:0.17199999;stroke-miterlimit:4;stroke-dasharray:none;stroke-dashoffset:0;stroke-opacity:1"
       id="rect4011"
       width="13.797607"
       height="13.797607"
       x="22.43858"
       y="274.90479" />
    <path
       style="opacity:0.7;fill:#ffffff;fill-opacity:1;stroke:none;stroke-width:0.03359375;stroke-miterlimit:4;stroke-dasharray:none;stroke-dashoffset:0;stroke-opacity:1"
       d="m 22.440556,281.78309 v -6.87297 h 6.898804 6.898805 v 6.87297 6.87296 H 29.33936 22.440556 Z"
       id="path4015"
       inkscape:connector-curvature="0" />
    <path
       style="opacity:0.7;fill:#ffffff;fill-opacity:1;stroke:none;stroke-width:0.03359375;stroke-miterlimit:4;stroke-dasharray:none;stroke-dashoffset:0;stroke-opacity:1"
       d="m 22.440556,281.78309 v -6.87297 h 6.898804 6.898805 v 6.87297 6.87296 H 29.33936 22.440556 Z"
       id="path4017"
       inkscape:connector-curvature="0" />
    <path
       style="opacity:0.7;fill:#ffffff;fill-opacity:1;stroke:none;stroke-width:0.03359375;stroke-miterlimit:4;stroke-dasharray:none;stroke-dashoffset:0;stroke-opacity:1"
       d="m 22.440556,281.78309 v -6.87297 h 6.898804 6.898805 v 6.87297 6.87296 H 29.33936 22.440556 Z"
       id="path4019"
       inkscape:connector-curvature="0" />
    <path
       style="opacity:0.7;fill:#ffffff;fill-opacity:1;stroke:none;stroke-width:0.03359375;stroke-miterlimit:4;stroke-dasharray:none;stroke-dashoffset:0;stroke-opacity:1"
       d="m 22.440556,281.78309 v -6.87297 h 6.898804 6.898805 v 6.87297 6.87296 H 29.33936 22.440556 Z"
       id="path4021"
       inkscape:connector-curvature="0" />
    <path
       style="opacity:0.7;fill:#ffffff;fill-opacity:1;stroke:none;stroke-width:0.03359375;stroke-miterlimit:4;stroke-dasharray:none;stroke-dashoffset:0;stroke-opacity:1"
       d="m 22.440556,281.78309 v -6.87297 h 6.898804 6.898805 v 6.87297 6.87296 H 29.33936 22.440556 Z"
       id="path4023"
       inkscape:connector-curvature="0" />
    <path
       style="opacity:0.7;fill:#ffffff;fill-opacity:1;stroke:none;stroke-width:0.03359375;stroke-miterlimit:4;stroke-dasharray:none;stroke-dashoffset:0;stroke-opacity:1"
       d="m 22.440556,281.78309 v -6.87297 h 6.898804 6.898805 v 6.87297 6.87296 H 29.33936 22.440556 Z"
       id="path4025"
       inkscape:connector-curvature="0" />
    <path
       style="opacity:0.7;fill:#ffffff;fill-opacity:1;stroke:none;stroke-width:0.03359375;stroke-miterlimit:4;stroke-dasharray:none;stroke-dashoffset:0;stroke-opacity:1"
       d="m 22.440556,281.78309 v -6.87297 h 6.898804 6.898805 v 6.87297 6.87296 H 29.33936 22.440556 Z"
       id="path4027"
       inkscape:connector-curvature="0" />
    <path
       style="opacity:0.7;fill:#ffffff;fill-opacity:1;stroke:none;stroke-width:0.03359375;stroke-miterlimit:4;stroke-dasharray:none;stroke-dashoffset:0;stroke-opacity:1"
       d="m 22.440556,281.78309 v -6.87297 h 6.898804 6.898805 v 6.87297 6.87296 H 29.33936 22.440556 Z"
       id="path4029"
       inkscape:connector-curvature="0" />
    <path
       style="opacity:0.7;fill:#ffffff;fill-opacity:1;stroke:none;stroke-width:0.03359375;stroke-miterlimit:4;stroke-dasharray:none;stroke-dashoffset:0;stroke-opacity:1"
       d="m 22.440556,281.78309 v -6.87297 h 6.898804 6.898805 v 6.87297 6.87296 H 29.33936 22.440556 Z"
       id="path4031"
       inkscape:connector-curvature="0" />
    <path
       style="opacity:0.7;fill:#ffffff;fill-opacity:1;stroke:none;stroke-width:0.03359375;stroke-miterlimit:4;stroke-dasharray:none;stroke-dashoffset:0;stroke-opacity:1"
       d="m 22.440556,281.78309 v -6.87297 h 6.898804 6.898805 v 6.87297 6.87296 H 29.33936 22.440556 Z"
       id="path4033"
       inkscape:connector-curvature="0" />
    <path
       style="opacity:0.7;fill:#ffffff;fill-opacity:1;stroke:none;stroke-width:0.03359375;stroke-miterlimit:4;stroke-dasharray:none;stroke-dashoffset:0;stroke-opacity:1"
       d="m 22.440556,281.78309 v -6.87297 h 6.898804 6.898805 v 6.87297 6.87296 H 29.33936 22.440556 Z"
       id="path4035"
       inkscape:connector-curvature="0" />
    <path
       style="opacity:0.7;fill:#ffffff;fill-opacity:1;stroke:none;stroke-width:0.03359375;stroke-miterlimit:4;stroke-dasharray:none;stroke-dashoffset:0;stroke-opacity:1"
       d="m 22.440556,281.78309 v -6.87297 h 6.898804 6.898805 v 6.87297 6.87296 H 29.33936 22.440556 Z"
       id="path4037"
       inkscape:connector-curvature="0" />
    <path
       style="opacity:0.7;fill:#ffffff;fill-opacity:1;stroke:none;stroke-width:0.03359375;stroke-miterlimit:4;stroke-dasharray:none;stroke-dashoffset:0;stroke-opacity:1"
       d="m 22.440556,281.78309 v -6.87297 h 6.898804 6.898805 v 6.87297 6.87296 H 29.33936 22.440556 Z"
       id="path4039"
       inkscape:connector-curvature="0" />
    <path
       style="opacity:0.7;fill:#ffffff;fill-opacity:1;stroke:none;stroke-width:0.03359375;stroke-miterlimit:4;stroke-dasharray:none;stroke-dashoffset:0;stroke-opacity:1"
       d="m 22.440556,281.78309 v -6.87297 h 6.898804 6.898805 v 6.87297 6.87296 H 29.33936 22.440556 Z"
       id="path4041"
       inkscape:connector-curvature="0" />
    <path
       style="opacity:0.7;fill:#ffffff;fill-opacity:1;stroke:none;stroke-width:0.03359375;stroke-miterlimit:4;stroke-dasharray:none;stroke-dashoffset:0;stroke-opacity:1"
       d="m 22.440556,281.78309 v -6.87297 h 6.898804 6.898805 v 6.87297 6.87296 H 29.33936 22.440556 Z"
       id="path4043"
       inkscape:connector-curvature="0" />
    <path
       style="opacity:0.7;fill:#ffffff;fill-opacity:1;stroke:none;stroke-width:0.03359375;stroke-miterlimit:4;stroke-dasharray:none;stroke-dashoffset:0;stroke-opacity:1"
       d="m 22.440556,281.78309 v -6.87297 h 6.898804 6.898805 v 6.87297 6.87296 H 29.33936 22.440556 Z"
       id="path4045"
       inkscape:connector-curvature="0" />
    <path
       style="opacity:0.7;fill:#ffffff;fill-opacity:1;stroke:none;stroke-width:0.03359375;stroke-miterlimit:4;stroke-dasharray:none;stroke-dashoffset:0;stroke-opacity:1"
       d="m 22.440556,281.78309 v -6.87297 h 6.898804 6.898805 v 6.87297 6.87296 H 29.33936 22.440556 Z"
       id="path4047"
       inkscape:connector-curvature="0" />
    <path
       style="opacity:0.7;fill:#ffffff;fill-opacity:1;stroke:none;stroke-width:0.03359375;stroke-miterlimit:4;stroke-dasharray:none;stroke-dashoffset:0;stroke-opacity:1"
       d="m 22.440556,281.78309 v -6.87297 h 6.898804 6.898805 v 6.87297 6.87296 H 29.33936 22.440556 Z"
       id="path4049"
       inkscape:connector-curvature="0" />
    <path
       style="opacity:0.7;fill:#ffffff;fill-opacity:1;stroke:none;stroke-width:0.03359375;stroke-miterlimit:4;stroke-dasharray:none;stroke-dashoffset:0;stroke-opacity:1"
       d="m 22.440556,281.78309 v -6.87297 h 6.898804 6.898805 v 6.87297 6.87296 H 29.33936 22.440556 Z"
       id="path4051"
       inkscape:connector-curvature="0" />
    <path
       style="opacity:0.7;fill:#ffffff;fill-opacity:1;stroke:none;stroke-width:0.03359375;stroke-miterlimit:4;stroke-dasharray:none;stroke-dashoffset:0;stroke-opacity:1"
       d="m 22.440556,281.78309 v -6.87297 h 6.898804 6.898805 v 6.87297 6.87296 H 29.33936 22.440556 Z"
       id="path4053"
       inkscape:connector-curvature="0" />
    <path
       style="opacity:0.7;fill:#ffffff;fill-opacity:1;stroke:none;stroke-width:0.03359375;stroke-miterlimit:4;stroke-dasharray:none;stroke-dashoffset:0;stroke-opacity:1"
       d="m 22.440556,281.78309 v -6.87297 h 6.898804 6.898805 v 6.87297 6.87296 H 29.33936 22.440556 Z"
       id="path4055"
       inkscape:connector-curvature="0" />
    <path
       style="opacity:0.7;fill:#ffffff;fill-opacity:1;stroke:none;stroke-width:0.03359375;stroke-miterlimit:4;stroke-dasharray:none;stroke-dashoffset:0;stroke-opacity:1"
       d="m 22.440556,281.78309 v -6.87297 h 6.898804 6.898805 v 6.87297 6.87296 H 29.33936 22.440556 Z"
       id="path4057"
       inkscape:connector-curvature="0" />
    <path
       style="opacity:0.7;fill:#ffffff;fill-opacity:1;stroke:none;stroke-width:0.03359375;stroke-miterlimit:4;stroke-dasharray:none;stroke-dashoffset:0;stroke-opacity:1"
       d="m 22.440556,281.78309 v -6.87297 h 6.898804 6.898805 v 6.87297 6.87296 H 29.33936 22.440556 Z"
       id="path4059"
       inkscape:connector-curvature="0" />
    <path
       style="opacity:0.7;fill:#ffffff;fill-opacity:1;stroke:none;stroke-width:0.03359375;stroke-miterlimit:4;stroke-dasharray:none;stroke-dashoffset:0;stroke-opacity:1"
       d="m 22.440556,281.78309 v -6.87297 h 6.898804 6.898805 v 6.87297 6.87296 H 29.33936 22.440556 Z"
       id="path4061"
       inkscape:connector-curvature="0" />
    <path
       style="opacity:0.7;fill:#ffffff;fill-opacity:1;stroke:none;stroke-width:0.03359375;stroke-miterlimit:4;stroke-dasharray:none;stroke-dashoffset:0;stroke-opacity:1"
       d="m 22.440556,281.78309 v -6.87297 h 6.898804 6.898805 v 6.87297 6.87296 H 29.33936 22.440556 Z"
       id="path4063"
       inkscape:connector-curvature="0" />
    <path
       style="opacity:0.7;fill:#ffffff;fill-opacity:1;stroke:none;stroke-width:0.03359375;stroke-miterlimit:4;stroke-dasharray:none;stroke-dashoffset:0;stroke-opacity:1"
       d="m 22.440556,281.78309 v -6.87297 h 6.898804 6.898805 v 6.87297 6.87296 H 29.33936 22.440556 Z"
       id="path4065"
       inkscape:connector-curvature="0" />
    <path
       style="opacity:0.7;fill:#ffffff;fill-opacity:1;stroke:none;stroke-width:0.03359375;stroke-miterlimit:4;stroke-dasharray:none;stroke-dashoffset:0;stroke-opacity:1"
       d="m 22.440556,281.78309 v -6.87297 h 6.898804 6.898805 v 6.87297 6.87296 H 29.33936 22.440556 Z"
       id="path4067"
       inkscape:connector-curvature="0" />
    <path
       style="opacity:0.7;fill:#ffffff;fill-opacity:1;stroke:none;stroke-width:0.03359375;stroke-miterlimit:4;stroke-dasharray:none;stroke-dashoffset:0;stroke-opacity:1"
       d="m 22.440556,281.78309 v -6.87297 h 6.898804 6.898805 v 6.87297 6.87296 H 29.33936 22.440556 Z"
       id="path4069"
       inkscape:connector-curvature="0" />
    <path
       style="opacity:0.7;fill:#ffffff;fill-opacity:1;stroke:none;stroke-width:0.03359375;stroke-miterlimit:4;stroke-dasharray:none;stroke-dashoffset:0;stroke-opacity:1"
       d="m 22.440556,281.78309 v -6.87297 h 6.898804 6.898805 v 6.87297 6.87296 H 29.33936 22.440556 Z"
       id="path4071"
       inkscape:connector-curvature="0" />
    <path
       style="opacity:0.7;fill:#ffffff;fill-opacity:1;stroke:none;stroke-width:0.03359375;stroke-miterlimit:4;stroke-dasharray:none;stroke-dashoffset:0;stroke-opacity:1"
       d="m 22.440556,281.78309 v -6.87297 h 6.898804 6.898805 v 6.87297 6.87296 H 29.33936 22.440556 Z"
       id="path4073"
       inkscape:connector-curvature="0" />
    <path
       style="opacity:0.7;fill:#ffffff;fill-opacity:1;stroke:none;stroke-width:0.03359375;stroke-miterlimit:4;stroke-dasharray:none;stroke-dashoffset:0;stroke-opacity:1"
       d="m 22.440556,281.78309 v -6.87297 h 6.898804 6.898805 v 6.87297 6.87296 H 29.33936 22.440556 Z"
       id="path4075"
       inkscape:connector-curvature="0" />
    <path
       style="opacity:0.7;fill:#ffffff;fill-opacity:1;stroke:none;stroke-width:0.03353095;stroke-miterlimit:4;stroke-dasharray:none;stroke-dashoffset:0;stroke-opacity:1"
       d="m 22.440556,281.78306 v -6.873 h 6.873 6.873 v 6.873 6.873 h -6.873 -6.873 z"
       id="path4077"
       inkscape:connector-curvature="0" />
    <path
       style="opacity:0.7;fill:#000000;fill-opacity:1;stroke:none;stroke-width:0.03359375;stroke-miterlimit:4;stroke-dasharray:none;stroke-dashoffset:0;stroke-opacity:1"
       d="m 20.580205,281.78309 v -8.78499 h 8.759155 8.759156 v 8.78499 8.78499 H 29.33936 20.580205 Z m 15.65796,0 v -6.92464 H 29.33936 22.440556 v 6.92464 6.92464 h 6.898804 6.898805 z"
       id="path4081"
       inkscape:connector-curvature="0" />
    <rect
       style="opacity:0.7;fill:#000000;fill-opacity:1;stroke:none;stroke-width:0.17199999;stroke-miterlimit:4;stroke-dasharray:none;stroke-dashoffset:0;stroke-opacity:1"
       id="rect4083"
       width="3.0489097"
       height="3.1005862"
       x="33.187275"
       y="274.90479" />
    <path
       style="opacity:1;fill:#000000;fill-opacity:1;stroke:none;stroke-width:0.03359375;stroke-miterlimit:4;stroke-dasharray:none;stroke-dashoffset:0;stroke-opacity:1"
       d="m 33.189254,276.40874 v -1.55029 h 1.524456 1.524455 v 1.55029 1.55029 H 34.71371 33.189254 Z"
       id="path4085"
       inkscape:connector-curvature="0" />
    <path
       style="opacity:1;fill:#000000;fill-opacity:1;stroke:none;stroke-width:0.03359375;stroke-miterlimit:4;stroke-dasharray:none;stroke-dashoffset:0;stroke-opacity:1"
       d="m 20.580205,281.78309 v -8.78499 h 8.759155 8.759156 v 8.78499 8.78499 H 29.33936 20.580205 Z m 15.65796,0 v -6.92464 H 29.33936 22.440556 v 6.92464 6.92464 h 6.898804 6.898805 z"
       id="path4087"
       inkscape:connector-curvature="0" />
    <path
       style="opacity:1;fill:#000000;fill-opacity:1;stroke:none;stroke-width:0.03134408;stroke-miterlimit:4;stroke-dasharray:none;stroke-dashoffset:0;stroke-opacity:1"
       d="m 43.647935,287.41904 v -2.98939 h 1.808091 1.808093 v -2.82062 -2.82063 h -1.808093 -1.808091 v -2.96527 -2.96527 h 2.989378 2.989382 v 1.80809 1.8081 h 2.796516 2.796519 v -1.8081 -1.80809 h 2.989379 2.989381 v 2.96527 2.96527 h -0.594876 c -0.327183,0 -1.151673,0.0143 -1.832202,0.0318 l -1.237324,0.0318 v 2.78879 2.78878 h 1.832202 1.8322 v 2.98939 2.98938 H 58.209109 55.21973 v -1.8322 -1.83221 h -2.796519 -2.796516 v 1.83221 1.8322 h -2.989382 -2.989378 z m 5.159091,0.38572 v -1.8322 h 3.56797 3.56797 v 0.66721 c 0,0.36697 0.01431,1.19146 0.03182,1.83221 l 0.03182,1.16498 h 2.186107 2.186109 v -2.21792 -2.21793 h -1.832203 -1.8322 v -3.56797 -3.56797 h 1.8322 1.832203 v -2.21793 -2.21793 h -2.18612 -2.186117 l -0.0317,1.12102 c -0.01744,0.61656 -0.03175,1.44105 -0.03181,1.8322 l -1.11e-4,0.71118 h -3.56797 -3.56797 v -1.8322 -1.8322 h -0.964316 -0.964316 v 1.25361 1.25361 H 45.62478 44.371168 v 0.96432 0.96432 h 1.8322 1.832203 v 3.56739 3.56739 l -1.820148,0.0126 -1.820146,0.0126 -0.01254,2.20587 -0.01254,2.20587 h 2.218415 2.218414 z"
       id="path4089"
       inkscape:connector-curvature="0" />
    <path
       style="opacity:1;fill:#000000;fill-opacity:1;stroke:none;stroke-width:0.03134408;stroke-miterlimit:4;stroke-dasharray:none;stroke-dashoffset:0;stroke-opacity:1"
       d="m 43.647935,287.41904 v -2.98939 h 1.808091 1.808093 v -2.82062 -2.82063 h -1.808093 -1.808091 v -2.96527 -2.96527 h 2.989378 2.989382 v 1.80809 1.8081 h 2.796516 2.796519 v -1.8081 -1.80809 h 2.989379 2.989381 v 2.96527 2.96527 h -0.522541 c -0.287396,0 -1.111888,0.0143 -1.8322,0.0319 l -1.309661,0.0319 v 2.78877 2.78877 h 1.832202 1.8322 v 2.98939 2.98938 H 58.209109 55.21973 v -1.8322 -1.83221 h -2.796519 -2.796516 v 1.83221 1.8322 h -2.989382 -2.989378 z m 5.159091,0.38572 v -1.8322 h 3.561871 3.561874 l 0.03567,1.8322 0.03567,1.8322 h 2.188353 2.188353 v -2.21792 -2.21793 h -1.832203 -1.8322 v -3.56797 -3.56797 h 1.8322 1.832203 v -2.21793 -2.21793 H 58.19275 56.006675 l -0.03185,1.30966 c -0.01752,0.72032 -0.03186,1.54481 -0.03186,1.8322 v 0.52254 h -3.56797 -3.56797 v -1.8322 -1.8322 h -0.964316 -0.964316 v 1.25361 1.25361 h -1.253612 -1.253612 v 0.96432 0.96432 h 1.8322 1.832203 v 3.56797 3.56797 h -1.801225 -1.801225 l -0.03097,0.29637 c -0.01704,0.163 -0.03098,1.16107 -0.03098,2.21792 v 1.92156 h 2.217928 2.217928 z"
       id="path4091"
       inkscape:connector-curvature="0" />
  </g>
</svg>
