<?xml version="1.0" encoding="UTF-8" standalone="no"?>
<!-- Created with Inkscape (http://www.inkscape.org/) -->

<svg
   xmlns:dc="http://purl.org/dc/elements/1.1/"
   xmlns:cc="http://creativecommons.org/ns#"
   xmlns:rdf="http://www.w3.org/1999/02/22-rdf-syntax-ns#"
   xmlns:svg="http://www.w3.org/2000/svg"
   xmlns="http://www.w3.org/2000/svg"
   xmlns:sodipodi="http://sodipodi.sourceforge.net/DTD/sodipodi-0.dtd"
   xmlns:inkscape="http://www.inkscape.org/namespaces/inkscape"
   width="11cm"
   height="5cm"
   viewBox="0 0 110 49.999999"
   version="1.1"
   id="svg3635"
   inkscape:version="0.92.3 (2405546, 2018-03-11)"
   sodipodi:docname="meander_loop_3D_rendition.svg">
  <defs
     id="defs3629">
    <clipPath
       id="clipPath3653"
       clipPathUnits="userSpaceOnUse">
      <path
         inkscape:connector-curvature="0"
         id="path3651"
         d="M 0,0 V 1785.78 H 2525.5801 V 0 H 0" />
    </clipPath>
    <clipPath
       id="clipPath3845"
       clipPathUnits="userSpaceOnUse">
      <path
         inkscape:connector-curvature="0"
         id="path3843"
         d="M 0,0 V 1785.78 H 2525.5801 V 0 H 0" />
    </clipPath>
    <clipPath
       id="clipPath4039"
       clipPathUnits="userSpaceOnUse">
      <path
         inkscape:connector-curvature="0"
         id="path4037"
         d="M 0,0 V 1785.78 H 2525.5801 V 0 H 0" />
    </clipPath>
    <clipPath
       id="clipPath4071"
       clipPathUnits="userSpaceOnUse">
      <path
         inkscape:connector-curvature="0"
         id="path4069"
         d="M 0,0 V 1785.78 H 2525.5801 V 0 H 0" />
    </clipPath>
  </defs>
  <sodipodi:namedview
     id="base"
     pagecolor="#ffffff"
     bordercolor="#666666"
     borderopacity="1.0"
     inkscape:pageopacity="0.0"
     inkscape:pageshadow="2"
     inkscape:zoom="2.19"
     inkscape:cx="135.66636"
     inkscape:cy="123.25582"
     inkscape:document-units="mm"
     inkscape:current-layer="layer1"
     showgrid="false"
     inkscape:window-width="1920"
     inkscape:window-height="1138"
     inkscape:window-x="-8"
     inkscape:window-y="-8"
     inkscape:window-maximized="1"
     units="cm" />
  <metadata
     id="metadata3632">
    <rdf:RDF>
      <cc:Work
         rdf:about="">
        <dc:format>image/svg+xml</dc:format>
        <dc:type
           rdf:resource="http://purl.org/dc/dcmitype/StillImage" />
        <dc:title></dc:title>
      </cc:Work>
    </rdf:RDF>
  </metadata>
  <g
     inkscape:label="Ebene 1"
     inkscape:groupmode="layer"
     id="layer1"
     transform="translate(0,-247.00002)">
    <path
       d="m 44.774117,272.25767 v 0.50746"
       style="fill:none;fill-opacity:1;stroke:#000000;stroke-width:0.0614749;stroke-linecap:round;stroke-linejoin:round;stroke-miterlimit:10;stroke-dasharray:none;stroke-opacity:1"
       id="path3655"
       inkscape:connector-curvature="0" />
    <path
       d="m 105.63211,272.25767 v 0.50746 L 75.203111,290.33156 44.774117,272.76513"
       style="fill:none;fill-opacity:1;stroke:#000000;stroke-width:0.0614749;stroke-linecap:round;stroke-linejoin:round;stroke-miterlimit:10;stroke-dasharray:none;stroke-opacity:1"
       id="path3657"
       inkscape:connector-curvature="0" />
    <path
       d="M 44.774117,272.25767 75.203111,289.8241 105.63211,272.25767"
       style="fill:none;fill-opacity:1;stroke:#000000;stroke-width:0.0614749;stroke-linecap:round;stroke-linejoin:round;stroke-miterlimit:10;stroke-dasharray:none;stroke-opacity:1"
       id="path3659"
       inkscape:connector-curvature="0" />
    <path
       d="m 75.203111,289.8241 v 0.50746"
       style="fill:none;fill-opacity:1;stroke:#000000;stroke-width:0.0614749;stroke-linecap:round;stroke-linejoin:round;stroke-miterlimit:10;stroke-dasharray:none;stroke-opacity:1"
       id="path3661"
       inkscape:connector-curvature="0" />
    <path
       d="m 75.203111,253.18831 -30.428994,17.56643 v 1.50293"
       style="fill:none;fill-opacity:1;stroke:#000000;stroke-width:0.0614749;stroke-linecap:round;stroke-linejoin:round;stroke-miterlimit:10;stroke-dasharray:none;stroke-opacity:1"
       id="path3663"
       inkscape:connector-curvature="0" />
    <path
       d="M 105.63211,272.25767 75.203111,289.8241 44.774117,272.25767"
       style="fill:none;fill-opacity:1;stroke:#000000;stroke-width:0.0614749;stroke-linecap:round;stroke-linejoin:round;stroke-miterlimit:10;stroke-dasharray:none;stroke-opacity:1"
       id="path3665"
       inkscape:connector-curvature="0" />
    <path
       d="m 105.63211,272.25767 v -1.50293 L 75.203111,253.18831"
       style="fill:none;fill-opacity:1;stroke:#000000;stroke-width:0.0614749;stroke-linecap:round;stroke-linejoin:round;stroke-miterlimit:10;stroke-dasharray:none;stroke-opacity:1"
       id="path3667"
       inkscape:connector-curvature="0" />
    <path
       d="m 44.774117,270.75474 30.428994,17.56644 30.428999,-17.56644"
       style="fill:none;fill-opacity:1;stroke:#000000;stroke-width:0.0614749;stroke-linecap:round;stroke-linejoin:round;stroke-miterlimit:10;stroke-dasharray:none;stroke-opacity:1"
       id="path3669"
       inkscape:connector-curvature="0" />
    <path
       d="m 75.203111,288.32118 v 1.50292"
       style="fill:none;fill-opacity:1;stroke:#000000;stroke-width:0.0614749;stroke-linecap:round;stroke-linejoin:round;stroke-miterlimit:10;stroke-dasharray:none;stroke-opacity:1"
       id="path3671"
       inkscape:connector-curvature="0" />
    <path
       d="m 91.617982,278.58157 -2.615457,1.52242 v 0.23434 l 2.615457,-1.50293 v -0.25369"
       style="fill:none;fill-opacity:1;stroke:#000000;stroke-width:0.0614749;stroke-linecap:round;stroke-linejoin:round;stroke-miterlimit:10;stroke-dasharray:none;stroke-opacity:1"
       id="path3673"
       inkscape:connector-curvature="0" />
    <path
       d="m 89.002525,280.33822 -7.748747,-4.46971 v -0.2537 l 7.748747,4.48922"
       style="fill:none;fill-opacity:1;stroke:#000000;stroke-width:0.0614749;stroke-linecap:round;stroke-linejoin:round;stroke-miterlimit:10;stroke-dasharray:none;stroke-opacity:1"
       id="path3675"
       inkscape:connector-curvature="0" />
    <path
       d="M 91.617982,278.58157 83.84971,274.11186"
       style="fill:none;fill-opacity:1;stroke:#000000;stroke-width:0.0614749;stroke-linecap:round;stroke-linejoin:round;stroke-miterlimit:10;stroke-dasharray:none;stroke-opacity:1"
       id="path3677"
       inkscape:connector-curvature="0" />
    <path
       d="m 81.253778,275.86851 -5.113799,2.94729 v -0.25371 l 5.113799,-2.94728"
       style="fill:none;fill-opacity:1;stroke:#000000;stroke-width:0.0614749;stroke-linecap:round;stroke-linejoin:round;stroke-miterlimit:10;stroke-dasharray:none;stroke-opacity:1"
       id="path3679"
       inkscape:connector-curvature="0" />
    <path
       d="m 83.84971,274.11186 5.113787,-2.94724 v 0.25369 l -4.879569,2.81065"
       style="fill:none;fill-opacity:1;stroke:#000000;stroke-width:0.0614749;stroke-linecap:round;stroke-linejoin:round;stroke-miterlimit:10;stroke-dasharray:none;stroke-opacity:1"
       id="path3681"
       inkscape:connector-curvature="0" />
    <path
       d="m 80.980521,275.18537 -2.225092,-1.28819 v 0.25369 l 2.01039,1.1711"
       style="fill:none;fill-opacity:1;stroke:#000000;stroke-width:0.0614749;stroke-linecap:round;stroke-linejoin:round;stroke-miterlimit:10;stroke-dasharray:none;stroke-opacity:1"
       id="path3683"
       inkscape:connector-curvature="0" />
    <path
       d="m 88.47554,270.87186 -5.348017,3.08388 -2.244592,-1.28821 -2.127502,1.22965"
       style="fill:none;fill-opacity:1;stroke:#000000;stroke-width:0.0614749;stroke-linecap:round;stroke-linejoin:round;stroke-miterlimit:10;stroke-dasharray:none;stroke-opacity:1"
       id="path3685"
       inkscape:connector-curvature="0" />
    <path
       d="m 80.980521,275.18537 -5.348009,3.0839 v 0.25371"
       style="fill:none;fill-opacity:1;stroke:#000000;stroke-width:0.0614749;stroke-linecap:round;stroke-linejoin:round;stroke-miterlimit:10;stroke-dasharray:none;stroke-opacity:1"
       id="path3687"
       inkscape:connector-curvature="0" />
    <path
       d="M 88.963497,271.16462 88.47554,270.87186"
       style="fill:none;fill-opacity:1;stroke:#000000;stroke-width:0.0614749;stroke-linecap:round;stroke-linejoin:round;stroke-miterlimit:10;stroke-dasharray:none;stroke-opacity:1"
       id="path3689"
       inkscape:connector-curvature="0" />
    <path
       d="m 75.632512,278.26927 0.507467,0.29281"
       style="fill:none;fill-opacity:1;stroke:#000000;stroke-width:0.0614749;stroke-linecap:round;stroke-linejoin:round;stroke-miterlimit:10;stroke-dasharray:none;stroke-opacity:1"
       id="path3691"
       inkscape:connector-curvature="0" />
    <path
       d="m 76.139979,278.8158 -0.507467,-0.29278"
       style="fill:none;fill-opacity:1;stroke:#000000;stroke-width:0.0614749;stroke-linecap:round;stroke-linejoin:round;stroke-miterlimit:10;stroke-dasharray:none;stroke-opacity:1"
       id="path3693"
       inkscape:connector-curvature="0" />
    <path
       d="m 69.152435,275.6148 -7.748746,4.48919 v 0.23434 l 7.748746,-4.4697 v -0.25371"
       style="fill:none;fill-opacity:1;stroke:#000000;stroke-width:0.0614749;stroke-linecap:round;stroke-linejoin:round;stroke-miterlimit:10;stroke-dasharray:none;stroke-opacity:1"
       id="path3695"
       inkscape:connector-curvature="0" />
    <path
       d="m 61.403689,280.10399 -2.615447,-1.52242 v 0.25369 l 2.615447,1.50295"
       style="fill:none;fill-opacity:1;stroke:#000000;stroke-width:0.0614749;stroke-linecap:round;stroke-linejoin:round;stroke-miterlimit:10;stroke-dasharray:none;stroke-opacity:1"
       id="path3697"
       inkscape:connector-curvature="0" />
    <path
       d="m 66.322296,274.22901 -4.879572,-2.81063 v -0.25371 l 5.113779,2.94724 -7.768261,4.46971"
       style="fill:none;fill-opacity:1;stroke:#000000;stroke-width:0.0614749;stroke-linecap:round;stroke-linejoin:round;stroke-miterlimit:10;stroke-dasharray:none;stroke-opacity:1"
       id="path3699"
       inkscape:connector-curvature="0" />
    <path
       d="m 69.152435,275.6148 5.113798,2.94728 v 0.25369 l -5.113798,-2.94728"
       style="fill:none;fill-opacity:1;stroke:#000000;stroke-width:0.0614749;stroke-linecap:round;stroke-linejoin:round;stroke-miterlimit:10;stroke-dasharray:none;stroke-opacity:1"
       id="path3701"
       inkscape:connector-curvature="0" />
    <path
       d="m 69.425702,275.18537 2.225084,-1.28819 v 0.25369 l -2.010392,1.1711"
       style="fill:none;fill-opacity:1;stroke:#000000;stroke-width:0.0614749;stroke-linecap:round;stroke-linejoin:round;stroke-miterlimit:10;stroke-dasharray:none;stroke-opacity:1"
       id="path3703"
       inkscape:connector-curvature="0" />
    <path
       d="m 71.650786,273.89718 -2.127493,-1.22965 -2.244603,1.28821"
       style="fill:none;fill-opacity:1;stroke:#000000;stroke-width:0.0614749;stroke-linecap:round;stroke-linejoin:round;stroke-miterlimit:10;stroke-dasharray:none;stroke-opacity:1"
       id="path3705"
       inkscape:connector-curvature="0" />
    <path
       d="m 74.773708,278.52302 v -0.25369 l -5.348006,-3.08389"
       style="fill:none;fill-opacity:1;stroke:#000000;stroke-width:0.0614749;stroke-linecap:round;stroke-linejoin:round;stroke-miterlimit:10;stroke-dasharray:none;stroke-opacity:1"
       id="path3707"
       inkscape:connector-curvature="0" />
    <path
       d="m 67.27869,273.95574 -5.348008,-3.08388 -0.487958,0.29276"
       style="fill:none;fill-opacity:1;stroke:#000000;stroke-width:0.0614749;stroke-linecap:round;stroke-linejoin:round;stroke-miterlimit:10;stroke-dasharray:none;stroke-opacity:1"
       id="path3709"
       inkscape:connector-curvature="0" />
    <path
       d="m 74.266233,278.56208 0.507475,-0.29281"
       style="fill:none;fill-opacity:1;stroke:#000000;stroke-width:0.0614749;stroke-linecap:round;stroke-linejoin:round;stroke-miterlimit:10;stroke-dasharray:none;stroke-opacity:1"
       id="path3711"
       inkscape:connector-curvature="0" />
    <path
       d="m 74.773708,278.52302 -0.507475,0.29278"
       style="fill:none;fill-opacity:1;stroke:#000000;stroke-width:0.0614749;stroke-linecap:round;stroke-linejoin:round;stroke-miterlimit:10;stroke-dasharray:none;stroke-opacity:1"
       id="path3713"
       inkscape:connector-curvature="0" />
    <path
       d="m 71.299455,266.05084 2.147013,-1.24916 v 0.25369 l -1.932311,1.11254"
       style="fill:none;fill-opacity:1;stroke:#000000;stroke-width:0.0614749;stroke-linecap:round;stroke-linejoin:round;stroke-miterlimit:10;stroke-dasharray:none;stroke-opacity:1"
       id="path3715"
       inkscape:connector-curvature="0" />
    <path
       d="m 72.529109,267.33904 -3.005816,1.73712 -2.244603,-1.28819"
       style="fill:none;fill-opacity:1;stroke:#000000;stroke-width:0.0614749;stroke-linecap:round;stroke-linejoin:round;stroke-miterlimit:10;stroke-dasharray:none;stroke-opacity:1"
       id="path3717"
       inkscape:connector-curvature="0" />
    <path
       d="m 72.529109,273.89718 -3.005816,-1.73713 v 0.25371 l 2.791113,1.6005"
       style="fill:none;fill-opacity:1;stroke:#000000;stroke-width:0.0614749;stroke-linecap:round;stroke-linejoin:round;stroke-miterlimit:10;stroke-dasharray:none;stroke-opacity:1"
       id="path3719"
       inkscape:connector-curvature="0" />
    <path
       d="m 72.529109,273.89718 -2.244613,1.28819 v 0.25371"
       style="fill:none;fill-opacity:1;stroke:#000000;stroke-width:0.0614749;stroke-linecap:round;stroke-linejoin:round;stroke-miterlimit:10;stroke-dasharray:none;stroke-opacity:1"
       id="path3721"
       inkscape:connector-curvature="0" />
    <path
       d="m 79.106767,275.18537 -3.903656,2.26415 -3.903656,-2.26415"
       style="fill:none;fill-opacity:1;stroke:#000000;stroke-width:0.0614749;stroke-linecap:round;stroke-linejoin:round;stroke-miterlimit:10;stroke-dasharray:none;stroke-opacity:1"
       id="path3723"
       inkscape:connector-curvature="0" />
    <path
       d="m 70.284496,275.18537 4.918615,2.84968"
       style="fill:none;fill-opacity:1;stroke:#000000;stroke-width:0.0614749;stroke-linecap:round;stroke-linejoin:round;stroke-miterlimit:10;stroke-dasharray:none;stroke-opacity:1"
       id="path3725"
       inkscape:connector-curvature="0" />
    <path
       d="m 75.203111,278.03505 v 0.23433 l -4.918615,-2.83014"
       style="fill:none;fill-opacity:1;stroke:#000000;stroke-width:0.0614749;stroke-linecap:round;stroke-linejoin:round;stroke-miterlimit:10;stroke-dasharray:none;stroke-opacity:1"
       id="path3727"
       inkscape:connector-curvature="0" />
    <path
       d="m 71.299455,275.18537 2.225076,-1.28819"
       style="fill:none;fill-opacity:1;stroke:#000000;stroke-width:0.0614749;stroke-linecap:round;stroke-linejoin:round;stroke-miterlimit:10;stroke-dasharray:none;stroke-opacity:1"
       id="path3729"
       inkscape:connector-curvature="0" />
    <path
       d="m 73.524531,273.89718 v 0.25369 l -2.010374,1.1711"
       style="fill:none;fill-opacity:1;stroke:#000000;stroke-width:0.0614749;stroke-linecap:round;stroke-linejoin:round;stroke-miterlimit:10;stroke-dasharray:none;stroke-opacity:1"
       id="path3731"
       inkscape:connector-curvature="0" />
    <path
       d="m 77.877115,273.89718 3.005816,-1.73713 v 0.25371 l -2.791125,1.6005"
       style="fill:none;fill-opacity:1;stroke:#000000;stroke-width:0.0614749;stroke-linecap:round;stroke-linejoin:round;stroke-miterlimit:10;stroke-dasharray:none;stroke-opacity:1"
       id="path3733"
       inkscape:connector-curvature="0" />
    <path
       d="m 80.882931,272.16005 2.244592,1.28821 v 0.25371 l -2.244592,-1.28821"
       style="fill:none;fill-opacity:1;stroke:#000000;stroke-width:0.0614749;stroke-linecap:round;stroke-linejoin:round;stroke-miterlimit:10;stroke-dasharray:none;stroke-opacity:1"
       id="path3735"
       inkscape:connector-curvature="0" />
    <path
       d="m 80.882931,269.07616 -3.005816,-1.73712"
       style="fill:none;fill-opacity:1;stroke:#000000;stroke-width:0.0614749;stroke-linecap:round;stroke-linejoin:round;stroke-miterlimit:10;stroke-dasharray:none;stroke-opacity:1"
       id="path3737"
       inkscape:connector-curvature="0" />
    <path
       d="m 77.877115,267.33904 2.244601,-1.2882 v 0.25371 l -2.02991,1.15157"
       style="fill:none;fill-opacity:1;stroke:#000000;stroke-width:0.0614749;stroke-linecap:round;stroke-linejoin:round;stroke-miterlimit:10;stroke-dasharray:none;stroke-opacity:1"
       id="path3739"
       inkscape:connector-curvature="0" />
    <path
       d="m 78.892055,266.16796 -1.932308,-1.11255 v -0.25372 l 2.14702,1.24918"
       style="fill:none;fill-opacity:1;stroke:#000000;stroke-width:0.0614749;stroke-linecap:round;stroke-linejoin:round;stroke-miterlimit:10;stroke-dasharray:none;stroke-opacity:1"
       id="path3741"
       inkscape:connector-curvature="0" />
    <path
       d="m 80.121716,266.05084 -4.918605,-2.84968"
       style="fill:none;fill-opacity:1;stroke:#000000;stroke-width:0.0614749;stroke-linecap:round;stroke-linejoin:round;stroke-miterlimit:10;stroke-dasharray:none;stroke-opacity:1"
       id="path3743"
       inkscape:connector-curvature="0" />
    <path
       d="m 76.959747,264.80168 -1.756636,1.01495 v 0.25369 l 1.756636,-1.01495"
       style="fill:none;fill-opacity:1;stroke:#000000;stroke-width:0.0614749;stroke-linecap:round;stroke-linejoin:round;stroke-miterlimit:10;stroke-dasharray:none;stroke-opacity:1"
       id="path3745"
       inkscape:connector-curvature="0" />
    <path
       d="m 75.203111,266.07034 -1.756643,-1.01493"
       style="fill:none;fill-opacity:1;stroke:#000000;stroke-width:0.0614749;stroke-linecap:round;stroke-linejoin:round;stroke-miterlimit:10;stroke-dasharray:none;stroke-opacity:1"
       id="path3747"
       inkscape:connector-curvature="0" />
    <path
       d="m 73.446468,264.80168 1.756643,1.01495"
       style="fill:none;fill-opacity:1;stroke:#000000;stroke-width:0.0614749;stroke-linecap:round;stroke-linejoin:round;stroke-miterlimit:10;stroke-dasharray:none;stroke-opacity:1"
       id="path3749"
       inkscape:connector-curvature="0" />
    <path
       d="m 72.529109,267.33904 -2.244613,-1.2882 v 0.25371 l 2.02991,1.15157"
       style="fill:none;fill-opacity:1;stroke:#000000;stroke-width:0.0614749;stroke-linecap:round;stroke-linejoin:round;stroke-miterlimit:10;stroke-dasharray:none;stroke-opacity:1"
       id="path3751"
       inkscape:connector-curvature="0" />
    <path
       d="m 75.203111,263.20116 -4.918615,2.84968"
       style="fill:none;fill-opacity:1;stroke:#000000;stroke-width:0.0614749;stroke-linecap:round;stroke-linejoin:round;stroke-miterlimit:10;stroke-dasharray:none;stroke-opacity:1"
       id="path3753"
       inkscape:connector-curvature="0" />
    <path
       d="m 80.882931,269.66172 -4.001247,-2.32268 v 0.25372 l 4.001247,2.30314 v -0.2343"
       style="fill:none;fill-opacity:1;stroke:#000000;stroke-width:0.0614749;stroke-linecap:round;stroke-linejoin:round;stroke-miterlimit:10;stroke-dasharray:none;stroke-opacity:1"
       id="path3755"
       inkscape:connector-curvature="0" />
    <path
       d="m 79.106767,266.05084 -2.225083,1.2882"
       style="fill:none;fill-opacity:1;stroke:#000000;stroke-width:0.0614749;stroke-linecap:round;stroke-linejoin:round;stroke-miterlimit:10;stroke-dasharray:none;stroke-opacity:1"
       id="path3757"
       inkscape:connector-curvature="0" />
    <path
       d="m 80.882931,269.89595 2.244592,-1.28821 v -0.2537 l -2.244592,1.30775"
       style="fill:none;fill-opacity:1;stroke:#000000;stroke-width:0.0614749;stroke-linecap:round;stroke-linejoin:round;stroke-miterlimit:10;stroke-dasharray:none;stroke-opacity:1"
       id="path3759"
       inkscape:connector-curvature="0" />
    <path
       d="m 88.026611,270.87186 v -0.25371 l -4.899088,-2.83017 -2.244592,1.28821"
       style="fill:none;fill-opacity:1;stroke:#000000;stroke-width:0.0614749;stroke-linecap:round;stroke-linejoin:round;stroke-miterlimit:10;stroke-dasharray:none;stroke-opacity:1"
       id="path3761"
       inkscape:connector-curvature="0" />
    <path
       d="m 83.127523,268.35399 3.903656,2.26414"
       style="fill:none;fill-opacity:1;stroke:#000000;stroke-width:0.0614749;stroke-linecap:round;stroke-linejoin:round;stroke-miterlimit:10;stroke-dasharray:none;stroke-opacity:1"
       id="path3763"
       inkscape:connector-curvature="0" />
    <path
       d="m 86.816487,270.73525 -3.688964,-2.12751"
       style="fill:none;fill-opacity:1;stroke:#000000;stroke-width:0.0614749;stroke-linecap:round;stroke-linejoin:round;stroke-miterlimit:10;stroke-dasharray:none;stroke-opacity:1"
       id="path3765"
       inkscape:connector-curvature="0" />
    <path
       d="m 88.026611,270.87186 -4.899088,2.83012"
       style="fill:none;fill-opacity:1;stroke:#000000;stroke-width:0.0614749;stroke-linecap:round;stroke-linejoin:round;stroke-miterlimit:10;stroke-dasharray:none;stroke-opacity:1"
       id="path3767"
       inkscape:connector-curvature="0" />
    <path
       d="m 83.127523,273.44826 4.899088,-2.83013"
       style="fill:none;fill-opacity:1;stroke:#000000;stroke-width:0.0614749;stroke-linecap:round;stroke-linejoin:round;stroke-miterlimit:10;stroke-dasharray:none;stroke-opacity:1"
       id="path3769"
       inkscape:connector-curvature="0" />
    <path
       d="m 87.031179,270.61813 -3.903656,2.26411 -2.244592,-1.28821 -4.001247,2.30315 v 0.25369"
       style="fill:none;fill-opacity:1;stroke:#000000;stroke-width:0.0614749;stroke-linecap:round;stroke-linejoin:round;stroke-miterlimit:10;stroke-dasharray:none;stroke-opacity:1"
       id="path3771"
       inkscape:connector-curvature="0" />
    <path
       d="m 75.203111,278.03505 4.918605,-2.84968"
       style="fill:none;fill-opacity:1;stroke:#000000;stroke-width:0.0614749;stroke-linecap:round;stroke-linejoin:round;stroke-miterlimit:10;stroke-dasharray:none;stroke-opacity:1"
       id="path3773"
       inkscape:connector-curvature="0" />
    <path
       d="m 80.121716,275.18537 v 0.25371 l -4.918605,2.83015"
       style="fill:none;fill-opacity:1;stroke:#000000;stroke-width:0.0614749;stroke-linecap:round;stroke-linejoin:round;stroke-miterlimit:10;stroke-dasharray:none;stroke-opacity:1"
       id="path3775"
       inkscape:connector-curvature="0" />
    <path
       d="m 76.881684,273.89718 2.225083,1.28819"
       style="fill:none;fill-opacity:1;stroke:#000000;stroke-width:0.0614749;stroke-linecap:round;stroke-linejoin:round;stroke-miterlimit:10;stroke-dasharray:none;stroke-opacity:1"
       id="path3777"
       inkscape:connector-curvature="0" />
    <path
       d="m 78.892055,275.32202 -2.010371,-1.17109"
       style="fill:none;fill-opacity:1;stroke:#000000;stroke-width:0.0614749;stroke-linecap:round;stroke-linejoin:round;stroke-miterlimit:10;stroke-dasharray:none;stroke-opacity:1"
       id="path3779"
       inkscape:connector-curvature="0" />
    <path
       d="m 80.121716,275.18537 -2.244601,-1.28819"
       style="fill:none;fill-opacity:1;stroke:#000000;stroke-width:0.0614749;stroke-linecap:round;stroke-linejoin:round;stroke-miterlimit:10;stroke-dasharray:none;stroke-opacity:1"
       id="path3781"
       inkscape:connector-curvature="0" />
    <path
       d="m 73.524531,273.89718 -4.001238,-2.30315 -2.244603,1.28821"
       style="fill:none;fill-opacity:1;stroke:#000000;stroke-width:0.0614749;stroke-linecap:round;stroke-linejoin:round;stroke-miterlimit:10;stroke-dasharray:none;stroke-opacity:1"
       id="path3783"
       inkscape:connector-curvature="0" />
    <path
       d="m 69.523293,272.16005 -2.244603,1.28821 v 0.25371 l 2.244603,-1.28821"
       style="fill:none;fill-opacity:1;stroke:#000000;stroke-width:0.0614749;stroke-linecap:round;stroke-linejoin:round;stroke-miterlimit:10;stroke-dasharray:none;stroke-opacity:1"
       id="path3785"
       inkscape:connector-curvature="0" />
    <path
       d="m 67.27869,273.44826 -4.899087,-2.83013 v 0.2537 l 4.899087,2.83014"
       style="fill:none;fill-opacity:1;stroke:#000000;stroke-width:0.0614749;stroke-linecap:round;stroke-linejoin:round;stroke-miterlimit:10;stroke-dasharray:none;stroke-opacity:1"
       id="path3787"
       inkscape:connector-curvature="0" />
    <path
       d="m 67.27869,267.78797 -4.899087,2.83016"
       style="fill:none;fill-opacity:1;stroke:#000000;stroke-width:0.0614749;stroke-linecap:round;stroke-linejoin:round;stroke-miterlimit:10;stroke-dasharray:none;stroke-opacity:1"
       id="path3789"
       inkscape:connector-curvature="0" />
    <path
       d="m 67.27869,272.88224 -3.903655,-2.26411"
       style="fill:none;fill-opacity:1;stroke:#000000;stroke-width:0.0614749;stroke-linecap:round;stroke-linejoin:round;stroke-miterlimit:10;stroke-dasharray:none;stroke-opacity:1"
       id="path3791"
       inkscape:connector-curvature="0" />
    <path
       d="m 63.589734,270.73525 3.688956,-2.12751 v -0.2537 l -3.903655,2.26413"
       style="fill:none;fill-opacity:1;stroke:#000000;stroke-width:0.0614749;stroke-linecap:round;stroke-linejoin:round;stroke-miterlimit:10;stroke-dasharray:none;stroke-opacity:1"
       id="path3793"
       inkscape:connector-curvature="0" />
    <path
       d="m 73.524531,267.33904 -2.225076,-1.2882"
       style="fill:none;fill-opacity:1;stroke:#000000;stroke-width:0.0614749;stroke-linecap:round;stroke-linejoin:round;stroke-miterlimit:10;stroke-dasharray:none;stroke-opacity:1"
       id="path3795"
       inkscape:connector-curvature="0" />
    <path
       d="m 67.27869,268.35399 2.244603,1.30773 4.001238,-2.32268"
       style="fill:none;fill-opacity:1;stroke:#000000;stroke-width:0.0614749;stroke-linecap:round;stroke-linejoin:round;stroke-miterlimit:10;stroke-dasharray:none;stroke-opacity:1"
       id="path3797"
       inkscape:connector-curvature="0" />
    <path
       d="m 73.524531,267.59277 -4.001238,2.30318 -2.244603,-1.28821"
       style="fill:none;fill-opacity:1;stroke:#000000;stroke-width:0.0614749;stroke-linecap:round;stroke-linejoin:round;stroke-miterlimit:10;stroke-dasharray:none;stroke-opacity:1"
       id="path3799"
       inkscape:connector-curvature="0" />
    <path
       d="m 69.523293,269.66172 v 0.23432"
       style="fill:none;fill-opacity:1;stroke:#000000;stroke-width:0.0614749;stroke-linecap:round;stroke-linejoin:round;stroke-miterlimit:10;stroke-dasharray:none;stroke-opacity:1"
       id="path3801"
       inkscape:connector-curvature="0" />
    <path
       d="m 73.524531,267.33904 v 0.25372"
       style="fill:none;fill-opacity:1;stroke:#000000;stroke-width:0.0614749;stroke-linecap:round;stroke-linejoin:round;stroke-miterlimit:10;stroke-dasharray:none;stroke-opacity:1"
       id="path3803"
       inkscape:connector-curvature="0" />
    <path
       style="opacity:1;fill:#2c89a0;fill-opacity:1;stroke:#000000;stroke-width:0.0614749;stroke-miterlimit:10;stroke-dasharray:none;stroke-dashoffset:0;stroke-opacity:1"
       d="m 68.642567,284.49663 c -3.593775,-2.07962 -6.679972,-3.86407 -6.858207,-3.96544 l -0.324071,-0.18426 3.8263,-2.20709 c 3.459988,-1.99586 3.84003,-2.20173 3.969726,-2.15049 0.07887,0.0309 1.238399,0.68917 2.5767,1.46228 l 2.433275,1.4056 0.274134,-0.15008 c 0.240375,-0.13144 0.27226,-0.16999 0.258902,-0.31237 -0.01428,-0.15139 -0.182814,-0.25893 -2.477113,-1.5813 -1.354033,-0.78044 -2.485179,-1.44226 -2.513657,-1.47076 -0.03165,-0.0317 0.321385,-0.26702 0.908024,-0.60538 1.286927,-0.74226 1.291853,-0.67613 -0.110967,-1.49021 -0.570687,-0.33117 -1.054492,-0.60328 -1.075126,-0.60467 -0.02066,-0.001 -0.535047,0.285 -1.143145,0.6364 l -1.105632,0.63889 -0.315117,-0.18369 c -0.17331,-0.10105 -1.375157,-0.79496 -2.670769,-1.54217 l -2.355656,-1.35852 -0.252386,0.14181 c -0.194566,0.10929 -0.25621,0.17843 -0.269009,0.3015 -0.01597,0.15533 0.0512,0.19868 2.415876,1.55965 l 2.432493,1.40006 -0.733265,0.42334 c -0.403296,0.23278 -2.089868,1.20341 -3.747941,2.15682 -2.332877,1.3414 -3.014676,1.75781 -3.014676,1.84109 0,0.0651 -0.02871,0.0966 -0.0728,0.0798 -0.0694,-0.0267 -13.356612,-7.68608 -13.686542,-7.88967 l -0.158247,-0.0977 15.175025,-8.76013 15.175021,-8.76015 15.173715,8.75924 c 8.345536,4.81754 15.166658,8.76605 15.158028,8.77438 -0.0328,0.0317 -13.760394,7.94932 -13.827105,7.97496 -0.04099,0.015 -0.07011,-0.0188 -0.07011,-0.0798 0,-0.0821 -0.69395,-0.50605 -3.014673,-1.84097 -1.658074,-0.95376 -3.34453,-1.9246 -3.747684,-2.15742 l -0.733008,-0.42335 2.432169,-1.40111 c 2.359369,-1.35917 2.431671,-1.40586 2.415616,-1.5598 -0.01256,-0.12185 -0.0751,-0.1917 -0.26894,-0.3011 l -0.252386,-0.14237 -2.355654,1.35887 c -1.295608,0.74739 -2.497523,1.44162 -2.67092,1.54277 l -0.315266,0.18389 -1.107618,-0.639 c -0.609192,-0.35146 -1.123536,-0.63836 -1.142998,-0.63756 -0.01939,8.2e-4 -0.5023,0.27333 -1.072986,0.60567 -1.4003,0.81536 -1.395166,0.74719 -0.112385,1.49112 0.527056,0.30563 0.936832,0.57715 0.910613,0.60337 -0.02622,0.0261 -1.156708,0.68732 -2.512193,1.46913 -2.297507,1.32513 -2.465544,1.43243 -2.479745,1.58394 -0.01352,0.14257 0.01841,0.18088 0.258553,0.31235 l 0.27379,0.14989 2.517752,-1.45294 c 1.384764,-0.79914 2.550307,-1.45336 2.590099,-1.45385 0.13781,-0.001 7.696882,4.3968 7.625423,4.43712 -0.03846,0.0207 -3.1334,1.80832 -6.877635,3.97026 -3.744234,2.16198 -6.810793,3.92852 -6.814572,3.92565 -0.0035,-0.001 -2.947234,-1.70674 -6.54101,-3.78635 z m 9.036544,-7.60809 c 2.424089,-1.39287 2.464469,-1.41898 2.448988,-1.58199 -0.01428,-0.15121 -0.0995,-0.21392 -0.959001,-0.70957 -0.518793,-0.29907 -0.954178,-0.55471 -0.967517,-0.56804 -0.02352,-0.0232 2.619581,-1.55728 2.683864,-1.55728 0.01785,0 0.514233,0.27762 1.103314,0.61695 0.58908,0.33934 1.101953,0.61669 1.13972,0.61636 0.03777,-3.4e-4 1.153948,-0.62756 2.480407,-1.3938 2.24596,-1.2974 2.41288,-1.40438 2.428313,-1.55641 0.01635,-0.15966 -0.0349,-0.19297 -2.407528,-1.56479 -1.333259,-0.77088 -2.444142,-1.40974 -2.468631,-1.41968 -0.02455,-0.0108 -0.546927,0.27105 -1.160976,0.62447 l -1.116452,0.6426 -1.322167,-0.76645 c -0.72719,-0.42154 -1.335651,-0.77996 -1.352131,-0.79641 -0.01654,-0.015 0.412483,-0.27965 0.953249,-0.58479 0.94999,-0.53604 0.982645,-0.56037 0.966504,-0.72008 -0.01559,-0.15478 -0.17423,-0.25654 -2.469864,-1.58828 l -2.453153,-1.42302 -2.454459,1.42101 c -2.30881,1.33665 -2.455451,1.43088 -2.471156,1.58812 -0.01635,0.16208 0.01352,0.18425 0.965386,0.72321 0.540143,0.30584 0.968745,0.56944 0.952439,0.58574 -0.01635,0.015 -0.624516,0.37364 -1.351591,0.7941 l -1.321951,0.7645 -1.118364,-0.64059 c -0.615102,-0.35232 -1.137996,-0.63281 -1.161986,-0.62331 -0.02402,0.009 -1.13375,0.64798 -2.466136,1.41883 -2.373703,1.37333 -2.422187,1.40488 -2.405945,1.5654 0.01559,0.15271 0.178701,0.25731 2.428318,1.55671 1.326458,0.76609 2.44064,1.39305 2.475959,1.39321 0.03531,1.6e-4 0.549064,-0.27731 1.141652,-0.61665 0.592589,-0.33933 1.091508,-0.61695 1.10871,-0.61695 0.05856,0 2.701656,1.53662 2.680126,1.55811 -0.01189,0.0135 -0.446341,0.26605 -0.965676,0.56502 -0.863281,0.49696 -0.945602,0.55789 -0.960083,0.71053 -0.01559,0.16455 0.01939,0.18727 2.439783,1.5811 1.350595,0.77774 2.464104,1.41505 2.474465,1.41618 0.01027,9.3e-4 1.127971,-0.63519 2.48357,-1.41406 z"
       id="path5815"
       inkscape:connector-curvature="0" />
    <path
       style="opacity:1;fill:#2c89a0;fill-opacity:1;stroke:#000000;stroke-width:0.0614749;stroke-miterlimit:10;stroke-dasharray:none;stroke-dashoffset:0;stroke-opacity:1"
       d="m 73.398511,276.36981 c -0.960242,-0.55903 -1.757111,-1.02763 -1.770821,-1.04136 -0.01371,-0.0135 0.416977,-0.28002 0.957081,-0.59185 0.944676,-0.54536 0.982035,-0.57231 0.982688,-0.70857 6.51e-4,-0.13881 -0.03839,-0.16398 -1.974865,-1.27835 -1.086548,-0.62519 -2.01689,-1.13711 -2.06742,-1.13761 -0.05053,-4.9e-4 -0.57163,0.27398 -1.157994,0.60999 -0.953769,0.54658 -1.077706,0.6057 -1.176074,0.56086 -0.09686,-0.0442 -3.49608,-2.00762 -3.526555,-2.03704 -0.01371,-0.0135 3.457488,-2.01984 3.566569,-2.06169 0.04472,-0.0188 0.484464,0.21004 1.159942,0.59922 0.598361,0.34476 1.108485,0.62669 1.133613,0.62645 0.02506,-2.2e-4 0.945187,-0.51916 2.044576,-1.15322 1.985203,-1.14497 1.998886,-1.15387 1.998886,-1.30067 0,-0.10875 -0.02723,-0.16041 -0.102794,-0.19556 -0.05652,-0.0263 -0.506009,-0.28201 -0.99882,-0.56825 l -0.896021,-0.52035 0.9385,-0.54152 c 0.713965,-0.41194 0.955665,-0.53095 1.010243,-0.49744 0.03945,0.0232 0.434796,0.25319 0.878527,0.5089 l 0.806784,0.46486 0.876325,-0.50697 0.876325,-0.50698 0.93258,0.53393 c 0.512916,0.29368 0.932577,0.53914 0.932577,0.54546 0,0.005 -0.442691,0.26642 -0.983758,0.57795 l -0.983758,0.56644 0.01297,0.15533 c 0.01256,0.15402 0.02972,0.16511 2.013321,1.30729 l 2.000453,1.15196 1.105952,-0.6334 c 0.608273,-0.34835 1.122444,-0.6334 1.142602,-0.6334 0.02016,0 0.846088,0.46713 1.835398,1.03804 l 1.798751,1.03807 -0.167317,0.0952 c -0.09201,0.0524 -0.900729,0.52086 -1.797118,1.04078 -0.896391,0.51997 -1.649894,0.94541 -1.674456,0.94541 -0.02455,0 -0.530311,-0.27985 -1.123887,-0.62188 -0.648976,-0.37397 -1.110739,-0.61302 -1.158253,-0.59965 -0.04346,0.0135 -0.952822,0.52617 -2.020799,1.14208 -1.918678,1.10653 -1.941938,1.12166 -1.955325,1.27441 l -0.01352,0.15439 0.981336,0.56956 c 0.539731,0.31324 0.976886,0.574 0.971454,0.57943 -0.05443,0.0545 -3.573555,2.0698 -3.611251,2.06811 -0.02786,-9e-4 -0.836268,-0.45963 -1.79651,-1.01869 z"
       id="path5817"
       inkscape:connector-curvature="0" />
    <path
       style="opacity:1;fill:#2c89a0;fill-opacity:1;stroke:#000000;stroke-width:0.0614749;stroke-miterlimit:10;stroke-dasharray:none;stroke-dashoffset:0;stroke-opacity:1"
       d="m 59.975707,280.9947 -15.1687,-8.75673 -0.01256,-0.71824 -0.01256,-0.71822 0.263897,0.14875 c 0.365587,0.20619 30.09572,17.36781 30.111333,17.38171 0.0069,0.005 0.0069,0.32811 0,0.71535 l -0.01256,0.70412 z"
       id="path5819"
       inkscape:connector-curvature="0" />
    <path
       style="opacity:1;fill:#2c89a0;fill-opacity:1;stroke:#000000;stroke-width:0.0614749;stroke-miterlimit:10;stroke-dasharray:none;stroke-dashoffset:0;stroke-opacity:1"
       d="m 75.223182,289.0587 0.01256,-0.72061 15.168699,-8.75695 15.168699,-8.75697 0.0126,0.7083 c 0.007,0.38953 0.007,0.71228 0,0.71717 -0.007,0.005 -6.828252,3.94185 -15.158471,8.74876 -8.330217,4.8069 -15.161804,8.74907 -15.181297,8.76035 -0.01963,0.009 -0.02979,-0.30372 -0.02272,-0.70005 z"
       id="path5821"
       inkscape:connector-curvature="0" />
    <path
       style="opacity:1;fill:#93a7ac;fill-opacity:1;stroke:#000000;stroke-width:0.0614749;stroke-miterlimit:10;stroke-dasharray:none;stroke-dashoffset:0;stroke-opacity:1"
       d="m 85.127421,277.82503 c -2.098263,-1.21802 -3.83945,-2.21493 -3.869304,-2.21535 -0.02987,-4.1e-4 -1.191496,0.65507 -2.58142,1.4567 l -2.527138,1.45751 -0.220764,-0.11902 c -0.203478,-0.10956 -0.214199,-0.12375 -0.137059,-0.18031 0.04604,-0.0336 1.214501,-0.71118 2.596586,-1.50551 1.382089,-0.79437 2.53885,-1.46779 2.570584,-1.49651 0.04462,-0.0405 -0.190562,-0.19585 -1.038631,-0.68668 -0.602973,-0.34893 -1.091537,-0.63884 -1.085692,-0.64426 0.05847,-0.0543 2.010441,-1.16125 2.047507,-1.16125 0.02729,0 0.536178,0.27986 1.130889,0.62194 0.953908,0.54863 1.094751,0.61661 1.195518,0.57692 0.06283,-0.0257 1.274032,-0.71499 2.691573,-1.53389 l 2.57735,-1.48892 0.17885,0.10672 c 0.09835,0.0586 0.180336,0.12456 0.182158,0.1467 0.0019,0.0232 -1.087475,0.66846 -2.420675,1.43656 -1.333202,0.76809 -2.467173,1.42602 -2.519935,1.46203 -0.08995,0.0615 0.138974,0.2005 3.681928,2.23575 2.077824,1.19364 3.816214,2.20106 3.863096,2.23876 0.07919,0.0639 -0.0015,0.11889 -1.135018,0.7767 -0.671142,0.38951 -1.252912,0.71309 -1.292825,0.71906 -0.03991,0.005 -1.789325,-0.98568 -3.887584,-2.20369 z"
       id="path5823"
       inkscape:connector-curvature="0" />
    <path
       style="opacity:1;fill:#93a7ac;fill-opacity:1;stroke:#000000;stroke-width:0.0614749;stroke-miterlimit:10;stroke-dasharray:none;stroke-dashoffset:0;stroke-opacity:1"
       d="m 60.170622,279.36644 c -0.673167,-0.39296 -1.246224,-0.72943 -1.273461,-0.74761 -0.04932,-0.0331 -0.0488,-0.0336 0.118465,-0.13955 0.09239,-0.0584 1.830189,-1.06227 3.861784,-2.23055 2.031595,-1.16827 3.693807,-2.12992 3.693807,-2.13699 0,-0.008 -1.14275,-0.67148 -2.539448,-1.47643 -1.396696,-0.80494 -2.535393,-1.47011 -2.530435,-1.47811 0.0049,-0.008 0.101199,-0.0694 0.213867,-0.13693 0.173441,-0.10375 0.212159,-0.11888 0.252539,-0.10051 0.02622,0.0135 1.227975,0.70237 2.670553,1.53424 1.442577,0.83189 2.637623,1.50864 2.65566,1.50394 0.01804,-0.005 0.527091,-0.29217 1.131236,-0.6388 l 1.098446,-0.63022 1.026411,0.59306 c 0.564527,0.3262 1.029174,0.60136 1.03255,0.61148 0.0034,0.009 -0.486621,0.30371 -1.088876,0.65237 -0.602256,0.34871 -1.095013,0.63704 -1.095013,0.64081 0,10e-4 0.04543,0.0328 0.100997,0.0643 0.05554,0.0316 0.139257,0.0793 0.186025,0.10591 0.835274,0.47608 4.945236,2.85366 4.979783,2.88075 0.05702,0.0447 0.06274,0.0393 -0.200044,0.18937 -0.174286,0.0996 -0.2002,0.10862 -0.24448,0.0851 -0.02725,-0.015 -1.176878,-0.67597 -2.554736,-1.47007 -1.377859,-0.79411 -2.516297,-1.43957 -2.529858,-1.43434 -0.01371,0.005 -1.71098,0.98655 -3.772034,2.1807 -2.061056,1.19414 -3.79741,2.19847 -3.85857,2.23191 l -0.111196,0.0607 z"
       id="path5825"
       inkscape:connector-curvature="0" />
    <path
       style="opacity:1;fill:#93a7ac;fill-opacity:1;stroke:#000000;stroke-width:0.0614749;stroke-miterlimit:10;stroke-dasharray:none;stroke-dashoffset:0;stroke-opacity:1"
       d="m 72.763439,276.60383 c -1.323944,-0.76776 -2.407309,-1.40552 -2.407479,-1.41719 -1.61e-4,-0.0135 0.492141,-0.30347 1.09402,-0.64841 0.601879,-0.34492 1.092082,-0.63439 1.089341,-0.64327 -0.0028,-0.009 -0.682374,-0.40763 -1.510296,-0.88614 l -1.505312,-0.87005 -1.118296,0.64166 c -0.615061,0.35295 -1.123918,0.64063 -1.130788,0.6393 -0.05004,-0.009 -4.82574,-2.78721 -4.820722,-2.80385 0.0054,-0.0188 4.426207,-2.58696 4.724712,-2.74535 l 0.107819,-0.0571 1.118615,0.64223 1.11862,0.6422 1.5001,-0.86726 c 0.825058,-0.47702 1.502483,-0.87687 1.505393,-0.88854 0.0028,-0.0135 -0.485456,-0.30283 -1.085256,-0.64694 l -1.090538,-0.62567 0.04884,-0.0477 c 0.06201,-0.0607 4.757322,-2.78072 4.800381,-2.78104 0.04293,-3.1e-4 4.737955,2.71959 4.800412,2.78095 l 0.04904,0.0481 -1.088807,0.62546 c -0.598845,0.34399 -1.086844,0.63502 -1.084444,0.64671 0.0024,0.0135 0.679278,0.41143 1.504168,0.88833 l 1.499804,0.8671 1.113212,-0.63855 c 0.612268,-0.3512 1.121702,-0.63854 1.132074,-0.63854 0.02532,0 4.768587,2.73888 4.807518,2.776 0.01671,0.015 0.02641,0.0331 0.02118,0.038 -0.01502,0.0135 -4.796687,2.77498 -4.817771,2.78172 -0.01502,0.005 -2.027413,-1.13578 -2.208198,-1.25148 -0.03958,-0.0259 -0.180953,0.0515 -1.551933,0.8436 -0.829608,0.4793 -1.510589,0.87855 -1.513285,0.88718 -0.0026,0.008 0.488683,0.29848 1.091957,0.644 0.603275,0.34554 1.098167,0.63549 1.099761,0.64438 0.0035,0.0207 -4.827043,2.82045 -4.86141,2.81791 -0.0139,-9.1e-4 -1.108562,-0.63002 -2.432507,-1.39778 z m 4.229563,-0.17112 c 0.985429,-0.57154 1.834739,-1.06445 1.887355,-1.09534 0.05263,-0.0308 0.126746,-0.0721 0.164746,-0.0915 0.038,-0.0207 0.06887,-0.0455 0.06859,-0.0582 -2.46e-4,-0.0135 -0.488337,-0.30439 -1.084575,-0.64874 -0.596236,-0.34436 -1.081198,-0.63471 -1.077686,-0.64525 0.0069,-0.0207 3.902265,-2.26832 3.931709,-2.26832 0.01013,0 0.519328,0.28742 1.131755,0.6387 l 1.113512,0.63872 1.956826,-1.13299 c 1.076259,-0.62316 1.954174,-1.14221 1.950928,-1.15352 -0.003,-0.009 -0.883923,-0.52982 -1.957066,-1.15234 l -1.951161,-1.13186 -1.111231,0.64746 c -0.611181,0.35609 -1.121348,0.64743 -1.133705,0.64743 -0.01766,0 -3.92902,-2.26 -3.954191,-2.28469 -0.0034,-10e-4 0.486893,-0.29174 1.089696,-0.64074 0.602807,-0.34899 1.092961,-0.64369 1.08924,-0.65485 -0.0035,-0.0108 -0.488343,-0.30081 -1.076928,-0.6436 l -1.070157,-0.62329 -0.864789,0.49962 c -0.475632,0.27479 -0.877391,0.49964 -0.892796,0.49964 -0.01559,0 -0.411681,-0.22142 -0.880616,-0.49191 -0.468935,-0.27055 -0.858353,-0.49503 -0.865373,-0.49888 -0.01766,-0.009 -2.151706,1.23395 -2.159874,1.25845 -0.0035,0.0108 0.473059,0.29697 1.059227,0.63597 0.586165,0.33902 1.079282,0.62614 1.095815,0.63804 0.02299,0.015 -0.431309,0.28977 -1.90804,1.14799 -1.065953,0.61952 -1.959437,1.13491 -1.98552,1.14531 -0.03999,0.015 -0.211928,-0.0769 -1.097588,-0.59219 -0.577589,-0.33615 -1.079488,-0.629 -1.115329,-0.65071 l -0.06518,-0.0396 -1.953204,1.13289 c -1.074259,0.62308 -1.955688,1.14175 -1.958724,1.15261 -0.0042,0.015 3.817027,2.24653 3.900868,2.27859 0.0077,0.001 0.504071,-0.27621 1.103128,-0.62033 0.599056,-0.3441 1.106382,-0.63109 1.127391,-0.63777 0.04092,-0.0135 0.06132,-0.001 2.51736,1.4122 0.802373,0.46186 1.4556,0.84507 1.451616,0.8516 -0.0042,0.005 -0.49541,0.29348 -1.092059,0.63777 -0.596648,0.34425 -1.085132,0.63283 -1.085517,0.64122 -6.51e-4,0.015 0.192525,0.14464 0.254428,0.17075 0.01766,0.008 0.845059,0.48675 1.838931,1.06529 0.993876,0.57854 1.80917,1.05266 1.811768,1.05361 0.0026,9.1e-4 0.810985,-0.46594 1.796412,-1.03747 z"
       id="path5827"
       inkscape:connector-curvature="0" />
    <path
       style="opacity:1;fill:#93a7ac;fill-opacity:1;stroke:#000000;stroke-width:0.0614749;stroke-miterlimit:10;stroke-dasharray:none;stroke-dashoffset:0;stroke-opacity:1"
       d="m 60.09243,279.56351 -1.280873,-0.73604 v -0.10591 -0.10592 l 0.0691,0.0408 c 0.038,0.0232 0.616787,0.35932 1.286189,0.74872 l 1.217098,0.70798 v 0.0933 c 0,0.0511 -0.0024,0.0929 -0.0054,0.0929 -0.0028,-4e-5 -0.581711,-0.33122 -1.286189,-0.73602 z"
       id="path5829"
       inkscape:connector-curvature="0" />
    <path
       style="opacity:1;fill:#93a7ac;fill-opacity:1;stroke:#000000;stroke-width:0.0614749;stroke-miterlimit:10;stroke-dasharray:none;stroke-dashoffset:0;stroke-opacity:1"
       d="m 61.430521,280.20468 0.0063,-0.099 3.816049,-2.21128 c 2.098828,-1.21623 3.832791,-2.22054 3.853253,-2.2318 0.03317,-0.0188 0.03721,-0.009 0.03721,0.0846 v 0.10524 l -3.842624,2.21598 c -2.113442,1.21874 -3.850357,2.22032 -3.859814,2.22564 -0.0096,0.005 -0.01428,-0.035 -0.01054,-0.0893 z"
       id="path5831"
       inkscape:connector-curvature="0" />
    <path
       style="opacity:1;fill:#93a7ac;fill-opacity:1;stroke:#000000;stroke-width:0.0614749;stroke-miterlimit:10;stroke-dasharray:none;stroke-dashoffset:0;stroke-opacity:1"
       d="m 63.956312,272.84725 c -1.303729,-0.75237 -2.397513,-1.39006 -2.430634,-1.41698 -0.05144,-0.0419 -0.05918,-0.0617 -0.05313,-0.13637 l 0.0069,-0.0873 2.513547,1.44797 c 1.382455,0.79637 2.513714,1.45337 2.513916,1.45997 3.25e-4,0.009 -0.123599,0.0804 -0.169724,0.097 -0.0059,10e-4 -1.077315,-0.61176 -2.381043,-1.36417 z"
       id="path5833"
       inkscape:connector-curvature="0" />
    <path
       style="opacity:1;fill:#93a7ac;fill-opacity:1;stroke:#000000;stroke-width:0.0614749;stroke-miterlimit:10;stroke-dasharray:none;stroke-dashoffset:0;stroke-opacity:1"
       d="m 64.89326,272.30271 c -1.291189,-0.74588 -2.379402,-1.3843 -2.418248,-1.41868 -0.05596,-0.0496 -0.07063,-0.0788 -0.07063,-0.14107 0,-0.0569 0.0077,-0.0755 0.02855,-0.0674 0.04274,0.015 4.783936,2.75692 4.803918,2.77675 0.0096,0.0108 0.01428,0.0597 0.01054,0.11199 l -0.0068,0.0948 z"
       id="path5835"
       inkscape:connector-curvature="0" />
    <path
       style="opacity:1;fill:#93a7ac;fill-opacity:1;stroke:#000000;stroke-width:0.0614749;stroke-miterlimit:10;stroke-dasharray:none;stroke-dashoffset:0;stroke-opacity:1"
       d="m 67.294029,273.56398 v -0.10375 l 1.088457,-0.62499 c 0.598656,-0.34375 1.096124,-0.62818 1.105488,-0.63207 0.0095,-10e-4 0.01709,0.0394 0.01709,0.0966 v 0.10375 l -1.034261,0.59441 c -0.568843,0.32695 -1.066311,0.61139 -1.105486,0.63213 l -0.07122,0.0377 z"
       id="path5837"
       inkscape:connector-curvature="0" />
    <path
       style="opacity:1;fill:#93a7ac;fill-opacity:1;stroke:#000000;stroke-width:0.0614749;stroke-miterlimit:10;stroke-dasharray:none;stroke-dashoffset:0;stroke-opacity:1"
       d="m 70.92937,273.19897 -1.371225,-0.78632 -0.0063,-0.10929 -0.0063,-0.10929 0.09157,0.0532 c 0.05035,0.029 0.70861,0.4094 1.462786,0.84483 0.754173,0.43547 1.374694,0.79494 1.378937,0.79884 0.01054,0.009 -0.129974,0.0943 -0.156536,0.0943 -0.01162,-4e-5 -0.63831,-0.35388 -1.392484,-0.78637 z"
       id="path5839"
       inkscape:connector-curvature="0" />
    <path
       style="opacity:1;fill:#93a7ac;fill-opacity:1;stroke:#000000;stroke-width:0.04939997;stroke-miterlimit:10;stroke-dasharray:none;stroke-dashoffset:0;stroke-opacity:1"
       d=""
       id="path5841"
       inkscape:connector-curvature="0"
       transform="scale(0.26458333)" />
    <path
       style="opacity:1;fill:#93a7ac;fill-opacity:1;stroke:#000000;stroke-width:0.0614749;stroke-miterlimit:10;stroke-dasharray:none;stroke-dashoffset:0;stroke-opacity:1"
       d="m 71.414452,275.23328 -0.0783,-0.0486 1.063044,-0.61551 c 0.584672,-0.33853 1.071934,-0.61871 1.082795,-0.62262 0.01094,-10e-4 0.01963,0.0392 0.01939,0.0957 l -2.42e-4,0.10294 -0.968379,0.56335 c -0.532609,0.30988 -0.984527,0.56567 -1.004265,0.56849 -0.01963,10e-4 -0.07113,-0.015 -0.114168,-0.0434 z"
       id="path5843"
       inkscape:connector-curvature="0" />
    <path
       style="opacity:1;fill:#93a7ac;fill-opacity:1;stroke:#000000;stroke-width:0.0614749;stroke-miterlimit:10;stroke-dasharray:none;stroke-dashoffset:0;stroke-opacity:1"
       d="m 69.543332,275.23266 -0.07858,-0.0482 1.071776,-0.62067 c 0.589479,-0.34136 1.076869,-0.62068 1.083095,-0.62068 0.02299,0 0.01027,0.16322 -0.01521,0.19662 -0.03103,0.0405 -1.920966,1.14304 -1.957679,1.14202 -0.01371,-3.1e-4 -0.06013,-0.0232 -0.103348,-0.0488 z"
       id="path5845"
       inkscape:connector-curvature="0" />
    <path
       style="opacity:1;fill:#93a7ac;fill-opacity:1;stroke:#000000;stroke-width:0.0614749;stroke-miterlimit:10;stroke-dasharray:none;stroke-dashoffset:0;stroke-opacity:1"
       d="m 72.841832,276.88883 c -1.280827,-0.73741 -2.363554,-1.36156 -2.406057,-1.38696 -0.104563,-0.0625 -0.151503,-0.13805 -0.134379,-0.21599 l 0.01371,-0.0617 2.414936,1.3991 c 1.328212,0.7695 2.42373,1.40789 2.434486,1.41864 0.01094,0.0108 0.01653,0.0573 0.01297,0.10362 l -0.0068,0.0839 z"
       id="path5847"
       inkscape:connector-curvature="0" />
    <path
       style="opacity:1;fill:#93a7ac;fill-opacity:1;stroke:#000000;stroke-width:0.0614749;stroke-miterlimit:10;stroke-dasharray:none;stroke-dashoffset:0;stroke-opacity:1"
       d="m 71.694708,277.31375 -2.519234,-1.45312 -0.0063,-0.10956 -0.0064,-0.10956 0.103726,0.0597 c 0.05704,0.0328 1.200439,0.69095 2.540865,1.46267 l 2.43714,1.40309 8.16e-4,0.10105 c 4.08e-4,0.0557 -0.0064,0.10051 -0.01521,0.1 -0.0088,-5.7e-4 -1.1496,-0.6549 -2.535175,-1.45412 z"
       id="path5849"
       inkscape:connector-curvature="0" />
    <path
       style="opacity:1;fill:#93a7ac;fill-opacity:1;stroke:#000000;stroke-width:0.0614749;stroke-miterlimit:10;stroke-dasharray:none;stroke-dashoffset:0;stroke-opacity:1"
       d="m 75.227801,278.14028 0.0063,-0.10199 2.412933,-1.39861 c 1.327114,-0.76922 2.422502,-1.39572 2.434194,-1.39224 0.01162,0.001 0.02402,0.0346 0.02753,0.0689 0.0047,0.0461 -0.0096,0.0776 -0.05313,0.11889 -0.03268,0.0309 -1.102211,0.65577 -2.376712,1.38865 -1.274496,0.73287 -2.348928,1.35192 -2.387624,1.37563 l -0.07034,0.0432 z"
       id="path5851"
       inkscape:connector-curvature="0" />
    <path
       style="opacity:1;fill:#93a7ac;fill-opacity:1;stroke:#000000;stroke-width:0.0614749;stroke-miterlimit:10;stroke-dasharray:none;stroke-dashoffset:0;stroke-opacity:1"
       d="m 74.288595,278.66786 c 2.46e-4,-0.10065 5.7e-4,-0.10119 0.122261,-0.16924 0.06709,-0.0376 0.172728,-0.0978 0.234742,-0.13415 l 0.112777,-0.0655 -0.0064,0.10983 -0.0063,0.10984 -0.2126,0.12428 c -0.116925,0.0682 -0.219756,0.12456 -0.228538,0.1251 -0.0088,5.8e-4 -0.01578,-0.0443 -0.01578,-0.1 z"
       id="path5853"
       inkscape:connector-curvature="0" />
    <path
       style="opacity:1;fill:#93a7ac;fill-opacity:1;stroke:#000000;stroke-width:0.0614749;stroke-miterlimit:10;stroke-dasharray:none;stroke-dashoffset:0;stroke-opacity:1"
       d="m 76.16005,278.66786 8.89e-4,-0.10106 2.457181,-1.41372 c 1.35145,-0.77758 2.4948,-1.43615 2.54078,-1.46351 l 0.08361,-0.0496 -0.0063,0.11078 -0.0063,0.11078 -2.51923,1.453 c -1.385577,0.79915 -2.526404,1.4533 -2.535176,1.45371 -0.0088,4.2e-4 -0.01559,-0.0447 -0.01502,-0.10024 z"
       id="path5855"
       inkscape:connector-curvature="0" />
    <path
       style="opacity:1;fill:#93a7ac;fill-opacity:1;stroke:#000000;stroke-width:0.0614749;stroke-miterlimit:10;stroke-dasharray:none;stroke-dashoffset:0;stroke-opacity:1"
       d="m 75.866849,278.6384 -0.217894,-0.12861 v -0.0952 c 0,-0.0669 0.0082,-0.0934 0.02725,-0.0884 0.01502,10e-4 0.120235,0.0593 0.233836,0.12375 l 0.20658,0.11699 4e-6,0.10105 c 4e-6,0.0557 -0.0073,0.10051 -0.01597,0.1 -0.0088,-4.9e-4 -0.114006,-0.0586 -0.233835,-0.12942 z"
       id="path5857"
       inkscape:connector-curvature="0" />
    <path
       style="opacity:1;fill:#93a7ac;fill-opacity:1;stroke:#000000;stroke-width:0.0614749;stroke-miterlimit:10;stroke-dasharray:none;stroke-dashoffset:0;stroke-opacity:1"
       d="m 85.119969,278.07757 -3.84794,-2.21947 -0.0063,-0.10929 c -0.0035,-0.06 0.0012,-0.10456 0.01054,-0.0992 0.0096,0.005 1.73913,1.00713 3.843802,2.22575 2.104674,1.21867 3.834467,2.223 3.843988,2.23193 0.0096,0.009 0.01428,0.0553 0.01054,0.10281 l -0.0068,0.0867 z"
       id="path5859"
       inkscape:connector-curvature="0" />
    <path
       style="opacity:1;fill:#93a7ac;fill-opacity:1;stroke:#000000;stroke-width:0.0614749;stroke-miterlimit:10;stroke-dasharray:none;stroke-dashoffset:0;stroke-opacity:1"
       d="m 77.876356,274.71212 -0.972114,-0.56718 -4.89e-4,-0.10281 c -2.42e-4,-0.0565 0.0085,-0.0996 0.01912,-0.0956 0.01094,10e-4 0.498122,0.28409 1.082794,0.62261 l 1.063043,0.61553 -0.0783,0.0481 c -0.04305,0.0264 -0.09263,0.0477 -0.110183,0.0473 -0.01766,-5e-4 -0.469337,-0.25603 -1.004001,-0.56804 z"
       id="path5861"
       inkscape:connector-curvature="0" />
    <path
       style="opacity:1;fill:#93a7ac;fill-opacity:1;stroke:#000000;stroke-width:0.0614749;stroke-miterlimit:10;stroke-dasharray:none;stroke-dashoffset:0;stroke-opacity:1"
       d="m 79.783878,274.73109 c -0.514476,-0.30134 -0.952149,-0.56536 -0.972612,-0.5867 -0.03418,-0.0357 -0.05492,-0.20152 -0.02532,-0.20152 0.01912,0 2.079071,1.19298 2.110367,1.22223 0.02325,0.0207 0.01502,0.0346 -0.04503,0.0717 -0.04033,0.0259 -0.08657,0.0447 -0.102726,0.0438 -0.01597,-8.9e-4 -0.450316,-0.24829 -0.964793,-0.54954 z"
       id="path5863"
       inkscape:connector-curvature="0" />
    <path
       style="opacity:1;fill:#93a7ac;fill-opacity:1;stroke:#000000;stroke-width:0.04939997;stroke-miterlimit:10;stroke-dasharray:none;stroke-dashoffset:0;stroke-opacity:1"
       d=""
       id="path5865"
       inkscape:connector-curvature="0"
       transform="scale(0.26458333)" />
    <path
       style="opacity:1;fill:#93a7ac;fill-opacity:1;stroke:#000000;stroke-width:0.0614749;stroke-miterlimit:10;stroke-dasharray:none;stroke-dashoffset:0;stroke-opacity:1"
       d="m 77.990382,273.94237 c -0.03931,-0.0232 -0.06803,-0.0473 -0.06379,-0.0509 0.0042,-0.001 0.658248,-0.38231 1.453346,-0.84126 0.795098,-0.45899 1.452809,-0.83863 1.46158,-0.84372 0.0088,-0.005 0.01597,0.0381 0.01597,0.0962 v 0.10524 l -1.361087,0.78043 c -0.748595,0.42922 -1.377607,0.78447 -1.397801,0.78944 -0.02016,0.005 -0.06887,-0.0108 -0.108184,-0.0351 z"
       id="path5867"
       inkscape:connector-curvature="0" />
    <path
       style="opacity:1;fill:#93a7ac;fill-opacity:1;stroke:#000000;stroke-width:0.0614749;stroke-miterlimit:10;stroke-dasharray:none;stroke-dashoffset:0;stroke-opacity:1"
       d="m 82.000161,273.03418 -1.100167,-0.63153 v -0.10334 c 0,-0.0569 0.0082,-0.1 0.01841,-0.0962 0.01013,0.001 0.507519,0.28822 1.105486,0.63184 l 1.087208,0.62473 v 0.10334 c 0,0.0569 -0.0024,0.10308 -0.0054,0.10308 -0.0028,-2.3e-4 -0.500393,-0.28466 -1.105486,-0.63197 z"
       id="path5869"
       inkscape:connector-curvature="0" />
    <path
       style="opacity:1;fill:#93a7ac;fill-opacity:1;stroke:#000000;stroke-width:0.0614749;stroke-miterlimit:10;stroke-dasharray:none;stroke-dashoffset:0;stroke-opacity:1"
       d="m 83.157572,273.56077 0.0063,-0.11227 2.402303,-1.38888 c 1.321266,-0.76391 2.409479,-1.38926 2.418247,-1.38969 0.0088,-4.1e-4 0.01597,0.0366 0.01597,0.0824 0,0.0709 -0.01162,0.0924 -0.07973,0.14537 -0.04384,0.034 -1.112924,0.65844 -2.375729,1.38733 -1.262804,0.72886 -2.318083,1.33937 -2.345065,1.35666 l -0.04907,0.0316 z"
       id="path5871"
       inkscape:connector-curvature="0" />
    <path
       style="opacity:1;fill:#93a7ac;fill-opacity:1;stroke:#000000;stroke-width:0.0614749;stroke-miterlimit:10;stroke-dasharray:none;stroke-dashoffset:0;stroke-opacity:1"
       d="m 83.9824,274.15841 -0.07299,-0.0611 0.116303,-0.0661 c 0.06397,-0.0365 1.192571,-0.6865 2.50799,-1.44479 l 2.391676,-1.37873 0.0068,0.0847 c 0.0053,0.0663 -0.0039,0.0951 -0.04253,0.13172 -0.03663,0.035 -4.806107,2.79495 -4.829825,2.79495 -0.0024,0 -0.03721,-0.0274 -0.07734,-0.0611 z"
       id="path5873"
       inkscape:connector-curvature="0" />
    <path
       style="opacity:1;fill:#93a7ac;fill-opacity:1;stroke:#000000;stroke-width:0.0614749;stroke-miterlimit:10;stroke-dasharray:none;stroke-dashoffset:0;stroke-opacity:1"
       d="m 84.981783,269.65808 -1.817672,-1.05019 -0.0064,-0.10876 c -0.0035,-0.06 0.0012,-0.10442 0.01054,-0.099 0.403638,0.23047 3.785456,2.19404 3.797522,2.20506 0.01766,0.015 -0.112034,0.10794 -0.147576,0.10483 -0.01027,-9.3e-4 -0.836699,-0.47425 -1.836421,-1.05183 z"
       id="path5875"
       inkscape:connector-curvature="0" />
    <path
       style="opacity:1;fill:#93a7ac;fill-opacity:1;stroke:#000000;stroke-width:0.0614749;stroke-miterlimit:10;stroke-dasharray:none;stroke-dashoffset:0;stroke-opacity:1"
       d="m 80.899994,269.76906 v -0.0963 l 1.087703,-0.63392 c 0.598236,-0.34865 1.095704,-0.6371 1.105486,-0.64101 0.0097,-10e-4 0.01785,0.0393 0.01785,0.0958 v 0.10307 l -1.036381,0.59404 c -0.570018,0.32665 -1.067486,0.61209 -1.105487,0.63427 l -0.0691,0.0404 z"
       id="path5877"
       inkscape:connector-curvature="0" />
    <path
       style="opacity:1;fill:#93a7ac;fill-opacity:1;stroke:#000000;stroke-width:0.0614749;stroke-miterlimit:10;stroke-dasharray:none;stroke-dashoffset:0;stroke-opacity:1"
       d="m 78.912246,268.74054 c -1.064028,-0.61246 -1.951961,-1.13077 -1.973186,-1.15177 -0.02757,-0.0274 -0.03668,-0.0627 -0.03188,-0.12428 l 0.0068,-0.0861 1.953987,1.13419 c 1.074694,0.62381 1.962617,1.14282 1.973165,1.15335 0.01054,0.009 0.01635,0.0571 0.01243,0.10376 l -0.0068,0.0846 z"
       id="path5879"
       inkscape:connector-curvature="0" />
    <path
       style="opacity:1;fill:#93a7ac;fill-opacity:1;stroke:#000000;stroke-width:0.0614749;stroke-miterlimit:10;stroke-dasharray:none;stroke-dashoffset:0;stroke-opacity:1"
       d="m 78.000528,267.3874 c -0.04543,-0.0274 -0.07411,-0.055 -0.06379,-0.0612 0.521922,-0.31036 2.143691,-1.22448 2.157379,-1.21605 0.03441,0.0207 0.02093,0.15007 -0.01939,0.1867 -0.02809,0.0259 -1.974427,1.14144 -1.989352,1.14068 -0.0012,-5e-5 -0.03933,-0.0232 -0.08477,-0.0501 z"
       id="path5881"
       inkscape:connector-curvature="0" />
    <path
       style="opacity:1;fill:#93a7ac;fill-opacity:1;stroke:#000000;stroke-width:0.0614749;stroke-miterlimit:10;stroke-dasharray:none;stroke-dashoffset:0;stroke-opacity:1"
       d="m 77.923689,265.59107 -0.946041,-0.54683 -0.0063,-0.10281 c -0.0054,-0.0858 -0.0011,-0.10064 0.02623,-0.0904 0.07017,0.0269 2.053128,1.18885 2.053128,1.20302 0,0.015 -0.139463,0.0875 -0.165476,0.0852 -0.0082,-8.4e-4 -0.440944,-0.24751 -0.961265,-0.5483 z"
       id="path5883"
       inkscape:connector-curvature="0" />
    <path
       style="opacity:1;fill:#93a7ac;fill-opacity:1;stroke:#000000;stroke-width:0.0614749;stroke-miterlimit:10;stroke-dasharray:none;stroke-dashoffset:0;stroke-opacity:1"
       d="m 74.31561,265.53924 -0.854994,-0.4933 -7.33e-4,-0.10105 c -4.07e-4,-0.0555 0.0047,-0.10105 0.01108,-0.10105 0.0063,0 0.393985,0.22089 0.861004,0.49074 l 0.849119,0.49073 v 0.10443 c 0,0.0577 -0.0024,0.10403 -0.0053,0.10362 -0.0028,-5.8e-4 -0.390063,-0.22296 -0.860307,-0.49428 z"
       id="path5885"
       inkscape:connector-curvature="0" />
    <path
       style="opacity:1;fill:#93a7ac;fill-opacity:1;stroke:#000000;stroke-width:0.0614749;stroke-miterlimit:10;stroke-dasharray:none;stroke-dashoffset:0;stroke-opacity:1"
       d="m 75.223755,265.93226 v -0.10578 l 0.849171,-0.49125 c 0.467048,-0.27019 0.854497,-0.49123 0.861004,-0.49123 0.0064,0 0.01162,0.0455 0.01148,0.10105 l -4.06e-4,0.10105 -0.74896,0.43114 c -0.41193,0.23718 -0.799187,0.46035 -0.860574,0.49604 l -0.111615,0.0649 z"
       id="path5887"
       inkscape:connector-curvature="0" />
    <path
       style="opacity:1;fill:#93a7ac;fill-opacity:1;stroke:#000000;stroke-width:0.0614749;stroke-miterlimit:10;stroke-dasharray:none;stroke-dashoffset:0;stroke-opacity:1"
       d="m 71.423652,266.1037 c -0.038,-0.0188 -0.06909,-0.0412 -0.06909,-0.049 0,-0.015 2.045218,-1.21061 2.071183,-1.21061 0.0081,0 0.01162,0.0454 0.0081,0.10106 l -0.0063,0.10064 -0.946042,0.54638 c -0.520321,0.30049 -0.955605,0.54624 -0.967296,0.54617 -0.01162,-1.2e-4 -0.05235,-0.015 -0.09035,-0.0346 z"
       id="path5889"
       inkscape:connector-curvature="0" />
    <path
       style="opacity:1;fill:#93a7ac;fill-opacity:1;stroke:#000000;stroke-width:0.0614749;stroke-miterlimit:10;stroke-dasharray:none;stroke-dashoffset:0;stroke-opacity:1"
       d="m 71.326021,266.87705 c -0.536017,-0.30592 -0.988043,-0.57465 -1.004502,-0.59714 -0.03329,-0.0455 -0.03846,-0.11402 -0.01189,-0.15609 0.01297,-0.0207 0.29152,0.12983 1.078585,0.58095 0.583637,0.33464 1.06947,0.61651 1.079632,0.62634 0.01464,0.0135 -0.137398,0.11267 -0.16114,0.10402 -0.0034,-9.1e-4 -0.444718,-0.25243 -0.980737,-0.55843 z"
       id="path5891"
       inkscape:connector-curvature="0" />
    <path
       style="opacity:1;fill:#93a7ac;fill-opacity:1;stroke:#000000;stroke-width:0.0614749;stroke-miterlimit:10;stroke-dasharray:none;stroke-dashoffset:0;stroke-opacity:1"
       d="m 68.394456,269.22763 -1.09991,-0.63139 -2.41e-4,-0.10105 c -1.65e-4,-0.0557 0.0035,-0.10105 0.0085,-0.10105 0.01297,0 2.16725,1.25523 2.187642,1.2746 0.0096,0.0108 0.01428,0.0557 0.01054,0.10335 l -0.0068,0.0867 z"
       id="path5895"
       inkscape:connector-curvature="0" />
    <path
       style="opacity:1;fill:#93a7ac;fill-opacity:1;stroke:#000000;stroke-width:0.0614749;stroke-miterlimit:10;stroke-dasharray:none;stroke-dashoffset:0;stroke-opacity:1"
       d="m 69.551562,269.76447 0.0068,-0.10186 1.966488,-1.14163 1.96649,-1.1416 0.0063,0.0958 c 0.0035,0.0528 -0.0012,0.10335 -0.01054,0.11226 -0.0096,0.0108 -0.86867,0.50617 -1.909313,1.10458 -1.040642,0.59836 -1.923742,1.10733 -1.962438,1.13097 l -0.07034,0.0428 z"
       id="path5897"
       inkscape:connector-curvature="0" />
    <path
       style="opacity:1;fill:#93a7ac;fill-opacity:1;stroke:#000000;stroke-width:0.0614749;stroke-miterlimit:10;stroke-dasharray:none;stroke-dashoffset:0;stroke-opacity:1"
       d="m 63.492595,270.66577 c -0.03873,-0.0259 -0.06266,-0.0523 -0.05313,-0.0605 0.0096,-0.008 0.840008,-0.49206 1.845572,-1.07457 1.005566,-0.58252 1.859395,-1.07745 1.897395,-1.09984 l 0.06909,-0.0408 v 0.10591 0.10591 l -1.828237,1.05471 c -1.005528,0.58011 -1.835439,1.05455 -1.844247,1.05436 -0.0088,-1.6e-4 -0.04769,-0.0207 -0.08642,-0.0454 z"
       id="path5899"
       inkscape:connector-curvature="0" />
    <path
       style="opacity:1;fill:#93a7ac;fill-opacity:1;stroke:#000000;stroke-width:0.0614749;stroke-miterlimit:10;stroke-dasharray:none;stroke-dashoffset:0;stroke-opacity:1"
       d="m 89.021053,280.20777 v -0.0932 l 1.206467,-0.70229 c 0.663554,-0.38624 1.242343,-0.72345 1.286188,-0.74935 l 0.07973,-0.047 v 0.10605 0.10619 l -1.238353,0.7112 c -0.681096,0.39122 -1.259882,0.72258 -1.286189,0.73639 -0.04615,0.0232 -0.04782,0.0207 -0.04782,-0.0682 z"
       id="path5901"
       inkscape:connector-curvature="0" />
    <path
       style="opacity:1;fill:#93a7ac;fill-opacity:1;stroke:#000000;stroke-width:0.0614749;stroke-miterlimit:10;stroke-dasharray:none;stroke-dashoffset:0;stroke-opacity:1"
       d="m 75.242883,290.05882 0.01216,-0.22995 15.12421,-8.73222 c 8.318315,-4.80272 15.146607,-8.74127 15.173967,-8.75236 0.0361,-0.015 0.0497,0.0384 0.0497,0.19298 l -5e-5,0.21316 -15.130233,8.73623 c -8.321619,4.80491 -15.155291,8.75106 -15.185936,8.76921 -0.04562,0.0269 -0.05354,-0.008 -0.04369,-0.19713 z"
       id="path5903"
       inkscape:connector-curvature="0" />
    <path
       style="opacity:1;fill:#93a7ac;fill-opacity:1;stroke:#000000;stroke-width:0.0614749;stroke-miterlimit:10;stroke-dasharray:none;stroke-dashoffset:0;stroke-opacity:1"
       d="m 60.011303,281.52812 c -8.340207,-4.81564 -15.178462,-8.76098 -15.196123,-8.76744 -0.01767,-0.005 -0.02661,-0.11024 -0.01989,-0.23071 l 0.01229,-0.21909 15.183911,8.76536 c 14.664853,8.46571 15.184341,8.76951 15.196437,8.88708 0.0069,0.0669 0.0069,0.16642 0,0.22115 -0.01189,0.0938 -0.887762,-0.40595 -15.176537,-8.65626 z"
       id="path5905"
       inkscape:connector-curvature="0" />
  </g>
</svg>
